%TF.GenerationSoftware,KiCad,Pcbnew,9.0.3*%
%TF.CreationDate,2025-08-15T14:55:14+02:00*%
%TF.ProjectId,labathome_pcb,6c616261-7468-46f6-9d65-5f7063622e6b,rev?*%
%TF.SameCoordinates,Original*%
%TF.FileFunction,Legend,Bot*%
%TF.FilePolarity,Positive*%
%FSLAX46Y46*%
G04 Gerber Fmt 4.6, Leading zero omitted, Abs format (unit mm)*
G04 Created by KiCad (PCBNEW 9.0.3) date 2025-08-15 14:55:14*
%MOMM*%
%LPD*%
G01*
G04 APERTURE LIST*
G04 Aperture macros list*
%AMRoundRect*
0 Rectangle with rounded corners*
0 $1 Rounding radius*
0 $2 $3 $4 $5 $6 $7 $8 $9 X,Y pos of 4 corners*
0 Add a 4 corners polygon primitive as box body*
4,1,4,$2,$3,$4,$5,$6,$7,$8,$9,$2,$3,0*
0 Add four circle primitives for the rounded corners*
1,1,$1+$1,$2,$3*
1,1,$1+$1,$4,$5*
1,1,$1+$1,$6,$7*
1,1,$1+$1,$8,$9*
0 Add four rect primitives between the rounded corners*
20,1,$1+$1,$2,$3,$4,$5,0*
20,1,$1+$1,$4,$5,$6,$7,0*
20,1,$1+$1,$6,$7,$8,$9,0*
20,1,$1+$1,$8,$9,$2,$3,0*%
%AMHorizOval*
0 Thick line with rounded ends*
0 $1 width*
0 $2 $3 position (X,Y) of the first rounded end (center of the circle)*
0 $4 $5 position (X,Y) of the second rounded end (center of the circle)*
0 Add line between two ends*
20,1,$1,$2,$3,$4,$5,0*
0 Add two circle primitives to create the rounded ends*
1,1,$1,$2,$3*
1,1,$1,$4,$5*%
%AMRotRect*
0 Rectangle, with rotation*
0 The origin of the aperture is its center*
0 $1 length*
0 $2 width*
0 $3 Rotation angle, in degrees counterclockwise*
0 Add horizontal line*
21,1,$1,$2,0,0,$3*%
%AMFreePoly0*
4,1,23,0.500000,-0.750000,0.000000,-0.750000,0.000000,-0.745722,-0.065263,-0.745722,-0.191342,-0.711940,-0.304381,-0.646677,-0.396677,-0.554381,-0.461940,-0.441342,-0.495722,-0.315263,-0.495722,-0.250000,-0.500000,-0.250000,-0.500000,0.250000,-0.495722,0.250000,-0.495722,0.315263,-0.461940,0.441342,-0.396677,0.554381,-0.304381,0.646677,-0.191342,0.711940,-0.065263,0.745722,0.000000,0.745722,
0.000000,0.750000,0.500000,0.750000,0.500000,-0.750000,0.500000,-0.750000,$1*%
%AMFreePoly1*
4,1,23,0.000000,0.745722,0.065263,0.745722,0.191342,0.711940,0.304381,0.646677,0.396677,0.554381,0.461940,0.441342,0.495722,0.315263,0.495722,0.250000,0.500000,0.250000,0.500000,-0.250000,0.495722,-0.250000,0.495722,-0.315263,0.461940,-0.441342,0.396677,-0.554381,0.304381,-0.646677,0.191342,-0.711940,0.065263,-0.745722,0.000000,-0.745722,0.000000,-0.750000,-0.500000,-0.750000,
-0.500000,0.750000,0.000000,0.750000,0.000000,0.745722,0.000000,0.745722,$1*%
%AMFreePoly2*
4,1,23,0.550000,-0.750000,0.000000,-0.750000,0.000000,-0.745722,-0.065263,-0.745722,-0.191342,-0.711940,-0.304381,-0.646677,-0.396677,-0.554381,-0.461940,-0.441342,-0.495722,-0.315263,-0.495722,-0.250000,-0.500000,-0.250000,-0.500000,0.250000,-0.495722,0.250000,-0.495722,0.315263,-0.461940,0.441342,-0.396677,0.554381,-0.304381,0.646677,-0.191342,0.711940,-0.065263,0.745722,0.000000,0.745722,
0.000000,0.750000,0.550000,0.750000,0.550000,-0.750000,0.550000,-0.750000,$1*%
%AMFreePoly3*
4,1,23,0.000000,0.745722,0.065263,0.745722,0.191342,0.711940,0.304381,0.646677,0.396677,0.554381,0.461940,0.441342,0.495722,0.315263,0.495722,0.250000,0.500000,0.250000,0.500000,-0.250000,0.495722,-0.250000,0.495722,-0.315263,0.461940,-0.441342,0.396677,-0.554381,0.304381,-0.646677,0.191342,-0.711940,0.065263,-0.745722,0.000000,-0.745722,0.000000,-0.750000,-0.550000,-0.750000,
-0.550000,0.750000,0.000000,0.750000,0.000000,0.745722,0.000000,0.745722,$1*%
G04 Aperture macros list end*
%ADD10C,0.250000*%
%ADD11C,0.150000*%
%ADD12C,0.120000*%
%ADD13C,0.100000*%
%ADD14C,1.200000*%
%ADD15R,1.700000X1.700000*%
%ADD16O,1.700000X1.700000*%
%ADD17O,2.000000X1.600000*%
%ADD18RoundRect,0.750000X-1.000000X0.750000X-1.000000X-0.750000X1.000000X-0.750000X1.000000X0.750000X0*%
%ADD19RoundRect,0.750000X-1.000000X1.000000X-1.000000X-1.000000X1.000000X-1.000000X1.000000X1.000000X0*%
%ADD20RoundRect,0.875000X-0.875000X0.875000X-0.875000X-0.875000X0.875000X-0.875000X0.875000X0.875000X0*%
%ADD21RoundRect,0.450000X-0.750000X0.450000X-0.750000X-0.450000X0.750000X-0.450000X0.750000X0.450000X0*%
%ADD22C,1.500000*%
%ADD23R,1.100000X1.800000*%
%ADD24RoundRect,0.275000X-0.275000X-0.625000X0.275000X-0.625000X0.275000X0.625000X-0.275000X0.625000X0*%
%ADD25RoundRect,0.450000X0.750000X-0.450000X0.750000X0.450000X-0.750000X0.450000X-0.750000X-0.450000X0*%
%ADD26RoundRect,0.400000X-0.400000X-0.400000X0.400000X-0.400000X0.400000X0.400000X-0.400000X0.400000X0*%
%ADD27O,1.800000X1.600000*%
%ADD28RoundRect,0.208333X-0.791667X-0.541667X0.791667X-0.541667X0.791667X0.541667X-0.791667X0.541667X0*%
%ADD29O,2.000000X1.400000*%
%ADD30RoundRect,0.258929X0.741071X0.466071X-0.741071X0.466071X-0.741071X-0.466071X0.741071X-0.466071X0*%
%ADD31O,2.000000X1.450000*%
%ADD32O,1.600000X2.200000*%
%ADD33C,1.700000*%
%ADD34R,1.350000X1.350000*%
%ADD35C,1.350000*%
%ADD36C,3.400000*%
%ADD37RoundRect,0.250000X0.675000X-0.600000X0.675000X0.600000X-0.675000X0.600000X-0.675000X-0.600000X0*%
%ADD38O,1.850000X1.700000*%
%ADD39RoundRect,0.500000X0.350000X-0.350000X0.350000X0.350000X-0.350000X0.350000X-0.350000X-0.350000X0*%
%ADD40HorizOval,1.400000X0.000000X0.000000X0.000000X0.000000X0*%
%ADD41C,1.600000*%
%ADD42RoundRect,0.140000X0.140000X0.170000X-0.140000X0.170000X-0.140000X-0.170000X0.140000X-0.170000X0*%
%ADD43RoundRect,0.250000X0.250000X0.475000X-0.250000X0.475000X-0.250000X-0.475000X0.250000X-0.475000X0*%
%ADD44RoundRect,0.100000X0.130000X0.100000X-0.130000X0.100000X-0.130000X-0.100000X0.130000X-0.100000X0*%
%ADD45RoundRect,0.100000X0.100000X-0.130000X0.100000X0.130000X-0.100000X0.130000X-0.100000X-0.130000X0*%
%ADD46RoundRect,0.250000X-0.250000X-0.475000X0.250000X-0.475000X0.250000X0.475000X-0.250000X0.475000X0*%
%ADD47RoundRect,0.250000X-1.500000X-0.550000X1.500000X-0.550000X1.500000X0.550000X-1.500000X0.550000X0*%
%ADD48RoundRect,0.140000X-0.170000X0.140000X-0.170000X-0.140000X0.170000X-0.140000X0.170000X0.140000X0*%
%ADD49RoundRect,0.250000X-0.450000X0.350000X-0.450000X-0.350000X0.450000X-0.350000X0.450000X0.350000X0*%
%ADD50RoundRect,0.200000X-0.200000X-0.275000X0.200000X-0.275000X0.200000X0.275000X-0.200000X0.275000X0*%
%ADD51RoundRect,0.150000X0.150000X-0.587500X0.150000X0.587500X-0.150000X0.587500X-0.150000X-0.587500X0*%
%ADD52O,3.500000X3.500000*%
%ADD53C,3.600000*%
%ADD54RoundRect,0.100000X-0.100000X0.130000X-0.100000X-0.130000X0.100000X-0.130000X0.100000X0.130000X0*%
%ADD55C,0.900000*%
%ADD56R,2.000000X0.700000*%
%ADD57R,0.800000X2.000000*%
%ADD58RoundRect,0.225000X0.225000X0.250000X-0.225000X0.250000X-0.225000X-0.250000X0.225000X-0.250000X0*%
%ADD59RoundRect,0.140000X-0.219203X-0.021213X-0.021213X-0.219203X0.219203X0.021213X0.021213X0.219203X0*%
%ADD60RoundRect,0.135000X0.135000X0.185000X-0.135000X0.185000X-0.135000X-0.185000X0.135000X-0.185000X0*%
%ADD61RoundRect,0.100000X-0.130000X-0.100000X0.130000X-0.100000X0.130000X0.100000X-0.130000X0.100000X0*%
%ADD62C,1.000000*%
%ADD63R,0.700000X1.600000*%
%ADD64R,1.200000X2.200000*%
%ADD65R,1.200000X1.500000*%
%ADD66R,1.600000X1.500000*%
%ADD67RoundRect,0.250000X-0.450000X-0.425000X0.450000X-0.425000X0.450000X0.425000X-0.450000X0.425000X0*%
%ADD68RoundRect,0.100000X-0.637500X-0.100000X0.637500X-0.100000X0.637500X0.100000X-0.637500X0.100000X0*%
%ADD69R,2.850000X5.400000*%
%ADD70RoundRect,0.140000X-0.021213X0.219203X-0.219203X0.021213X0.021213X-0.219203X0.219203X-0.021213X0*%
%ADD71RoundRect,0.335000X-1.340000X-1.365000X1.340000X-1.365000X1.340000X1.365000X-1.340000X1.365000X0*%
%ADD72RoundRect,0.250000X-0.625000X0.312500X-0.625000X-0.312500X0.625000X-0.312500X0.625000X0.312500X0*%
%ADD73RoundRect,0.220000X-0.780000X-0.330000X0.780000X-0.330000X0.780000X0.330000X-0.780000X0.330000X0*%
%ADD74RoundRect,0.082000X-0.328000X-0.618000X0.328000X-0.618000X0.328000X0.618000X-0.328000X0.618000X0*%
%ADD75RoundRect,0.225000X-0.225000X-0.250000X0.225000X-0.250000X0.225000X0.250000X-0.225000X0.250000X0*%
%ADD76RoundRect,0.140000X-0.140000X-0.170000X0.140000X-0.170000X0.140000X0.170000X-0.140000X0.170000X0*%
%ADD77RoundRect,0.140000X0.170000X-0.140000X0.170000X0.140000X-0.170000X0.140000X-0.170000X-0.140000X0*%
%ADD78C,2.000000*%
%ADD79RoundRect,0.135000X-0.135000X-0.185000X0.135000X-0.185000X0.135000X0.185000X-0.135000X0.185000X0*%
%ADD80RoundRect,0.112500X-0.187500X-0.112500X0.187500X-0.112500X0.187500X0.112500X-0.187500X0.112500X0*%
%ADD81RoundRect,0.130000X0.520000X0.670000X-0.520000X0.670000X-0.520000X-0.670000X0.520000X-0.670000X0*%
%ADD82RoundRect,0.220000X0.330000X-0.780000X0.330000X0.780000X-0.330000X0.780000X-0.330000X-0.780000X0*%
%ADD83RoundRect,0.250000X0.750000X-1.250000X0.750000X1.250000X-0.750000X1.250000X-0.750000X-1.250000X0*%
%ADD84RoundRect,0.150000X0.825000X0.150000X-0.825000X0.150000X-0.825000X-0.150000X0.825000X-0.150000X0*%
%ADD85R,2.300000X2.300000*%
%ADD86RoundRect,0.150000X0.512500X0.150000X-0.512500X0.150000X-0.512500X-0.150000X0.512500X-0.150000X0*%
%ADD87R,3.600000X1.500000*%
%ADD88RoundRect,0.100000X-0.162635X0.021213X0.021213X-0.162635X0.162635X-0.021213X-0.021213X0.162635X0*%
%ADD89RoundRect,0.250000X-0.475000X0.250000X-0.475000X-0.250000X0.475000X-0.250000X0.475000X0.250000X0*%
%ADD90RoundRect,0.225000X-0.250000X0.225000X-0.250000X-0.225000X0.250000X-0.225000X0.250000X0.225000X0*%
%ADD91C,0.650000*%
%ADD92R,1.450000X0.600000*%
%ADD93R,1.450000X0.300000*%
%ADD94O,1.600000X1.000000*%
%ADD95O,2.100000X1.000000*%
%ADD96RoundRect,0.250000X0.550000X-1.500000X0.550000X1.500000X-0.550000X1.500000X-0.550000X-1.500000X0*%
%ADD97RoundRect,0.100000X-0.021213X-0.162635X0.162635X0.021213X0.021213X0.162635X-0.162635X-0.021213X0*%
%ADD98RoundRect,0.062500X0.282843X-0.194454X-0.194454X0.282843X-0.282843X0.194454X0.194454X-0.282843X0*%
%ADD99RoundRect,0.062500X0.282843X0.194454X0.194454X0.282843X-0.282843X-0.194454X-0.194454X-0.282843X0*%
%ADD100RotRect,3.600000X3.600000X135.000000*%
%ADD101RoundRect,0.218750X0.026517X-0.335876X0.335876X-0.026517X-0.026517X0.335876X-0.335876X0.026517X0*%
%ADD102RoundRect,0.062500X0.062500X-0.325000X0.062500X0.325000X-0.062500X0.325000X-0.062500X-0.325000X0*%
%ADD103RoundRect,0.062500X0.325000X-0.062500X0.325000X0.062500X-0.325000X0.062500X-0.325000X-0.062500X0*%
%ADD104R,3.750000X3.750000*%
%ADD105RoundRect,0.250000X0.450000X0.425000X-0.450000X0.425000X-0.450000X-0.425000X0.450000X-0.425000X0*%
%ADD106RoundRect,0.225000X0.250000X-0.225000X0.250000X0.225000X-0.250000X0.225000X-0.250000X-0.225000X0*%
%ADD107RoundRect,0.250000X-0.312500X-0.625000X0.312500X-0.625000X0.312500X0.625000X-0.312500X0.625000X0*%
%ADD108RoundRect,0.200000X-0.200000X0.750000X-0.200000X-0.750000X0.200000X-0.750000X0.200000X0.750000X0*%
%ADD109RoundRect,0.250000X0.450000X-0.350000X0.450000X0.350000X-0.450000X0.350000X-0.450000X-0.350000X0*%
%ADD110RoundRect,0.250000X-0.425000X0.450000X-0.425000X-0.450000X0.425000X-0.450000X0.425000X0.450000X0*%
%ADD111RoundRect,0.162500X0.162500X-0.617500X0.162500X0.617500X-0.162500X0.617500X-0.162500X-0.617500X0*%
%ADD112R,0.800000X0.500000*%
%ADD113R,2.200000X3.000000*%
%ADD114R,2.200000X2.000000*%
%ADD115R,2.200000X0.600000*%
%ADD116RoundRect,0.050000X0.285000X0.100000X-0.285000X0.100000X-0.285000X-0.100000X0.285000X-0.100000X0*%
%ADD117RoundRect,0.150000X0.625000X-0.150000X0.625000X0.150000X-0.625000X0.150000X-0.625000X-0.150000X0*%
%ADD118RoundRect,0.250000X0.650000X-0.350000X0.650000X0.350000X-0.650000X0.350000X-0.650000X-0.350000X0*%
%ADD119RoundRect,0.087500X-0.225000X-0.087500X0.225000X-0.087500X0.225000X0.087500X-0.225000X0.087500X0*%
%ADD120RoundRect,0.087500X-0.087500X-0.225000X0.087500X-0.225000X0.087500X0.225000X-0.087500X0.225000X0*%
%ADD121R,1.000000X1.000000*%
%ADD122O,1.000000X1.000000*%
%ADD123FreePoly0,270.000000*%
%ADD124FreePoly1,270.000000*%
%ADD125RoundRect,0.100000X0.021213X0.162635X-0.162635X-0.021213X-0.021213X-0.162635X0.162635X0.021213X0*%
%ADD126C,0.700000*%
%ADD127R,0.900000X1.400000*%
%ADD128R,1.400000X1.200000*%
%ADD129R,1.500000X0.900000*%
%ADD130R,0.900000X1.500000*%
%ADD131R,0.900000X0.900000*%
%ADD132RoundRect,0.135000X-0.185000X0.135000X-0.185000X-0.135000X0.185000X-0.135000X0.185000X0.135000X0*%
%ADD133RoundRect,0.335000X1.340000X1.365000X-1.340000X1.365000X-1.340000X-1.365000X1.340000X-1.365000X0*%
%ADD134RoundRect,0.250000X0.600000X0.750000X-0.600000X0.750000X-0.600000X-0.750000X0.600000X-0.750000X0*%
%ADD135O,1.700000X2.000000*%
%ADD136RoundRect,0.075000X0.700000X0.075000X-0.700000X0.075000X-0.700000X-0.075000X0.700000X-0.075000X0*%
%ADD137RoundRect,0.075000X0.075000X0.700000X-0.075000X0.700000X-0.075000X-0.700000X0.075000X-0.700000X0*%
%ADD138RoundRect,0.150000X-0.150000X0.825000X-0.150000X-0.825000X0.150000X-0.825000X0.150000X0.825000X0*%
%ADD139C,3.200000*%
%ADD140RoundRect,0.428571X-1.571429X-1.071429X1.571429X-1.071429X1.571429X1.071429X-1.571429X1.071429X0*%
%ADD141C,3.500000*%
%ADD142RoundRect,0.250000X0.850000X0.350000X-0.850000X0.350000X-0.850000X-0.350000X0.850000X-0.350000X0*%
%ADD143RoundRect,0.249997X2.950003X2.650003X-2.950003X2.650003X-2.950003X-2.650003X2.950003X-2.650003X0*%
%ADD144RoundRect,0.135000X0.185000X-0.135000X0.185000X0.135000X-0.185000X0.135000X-0.185000X-0.135000X0*%
%ADD145FreePoly2,0.000000*%
%ADD146R,1.000000X1.500000*%
%ADD147FreePoly3,0.000000*%
%ADD148FreePoly0,0.000000*%
%ADD149FreePoly1,0.000000*%
%ADD150RoundRect,0.150000X-0.587500X-0.150000X0.587500X-0.150000X0.587500X0.150000X-0.587500X0.150000X0*%
%ADD151RoundRect,0.375000X-0.375000X0.625000X-0.375000X-0.625000X0.375000X-0.625000X0.375000X0.625000X0*%
%ADD152RoundRect,0.500000X-1.400000X0.500000X-1.400000X-0.500000X1.400000X-0.500000X1.400000X0.500000X0*%
%ADD153FreePoly0,90.000000*%
%ADD154FreePoly1,90.000000*%
%ADD155RoundRect,0.200000X0.750000X0.200000X-0.750000X0.200000X-0.750000X-0.200000X0.750000X-0.200000X0*%
%ADD156RoundRect,0.100000X0.162635X-0.021213X-0.021213X0.162635X-0.162635X0.021213X0.021213X-0.162635X0*%
%ADD157RoundRect,0.250000X0.475000X-0.250000X0.475000X0.250000X-0.475000X0.250000X-0.475000X-0.250000X0*%
%ADD158FreePoly0,180.000000*%
%ADD159FreePoly1,180.000000*%
%ADD160R,1.000000X3.000000*%
%ADD161R,1.800000X1.100000*%
%ADD162RoundRect,0.275000X-0.625000X0.275000X-0.625000X-0.275000X0.625000X-0.275000X0.625000X0.275000X0*%
%ADD163RoundRect,0.250000X0.625000X-0.400000X0.625000X0.400000X-0.625000X0.400000X-0.625000X-0.400000X0*%
%ADD164RoundRect,0.255000X0.255000X-1.330000X0.255000X1.330000X-0.255000X1.330000X-0.255000X-1.330000X0*%
%ADD165R,3.000000X2.200000*%
%ADD166R,2.000000X2.200000*%
%ADD167RoundRect,0.250000X-0.625000X0.400000X-0.625000X-0.400000X0.625000X-0.400000X0.625000X0.400000X0*%
%ADD168RoundRect,0.218750X0.218750X0.256250X-0.218750X0.256250X-0.218750X-0.256250X0.218750X-0.256250X0*%
G04 APERTURE END LIST*
D10*
X161656955Y-113359500D02*
X161485527Y-113430928D01*
X161485527Y-113430928D02*
X161199812Y-113430928D01*
X161199812Y-113430928D02*
X161085527Y-113359500D01*
X161085527Y-113359500D02*
X161028384Y-113288071D01*
X161028384Y-113288071D02*
X160971241Y-113145214D01*
X160971241Y-113145214D02*
X160971241Y-113002357D01*
X160971241Y-113002357D02*
X161028384Y-112859500D01*
X161028384Y-112859500D02*
X161085527Y-112788071D01*
X161085527Y-112788071D02*
X161199812Y-112716642D01*
X161199812Y-112716642D02*
X161428384Y-112645214D01*
X161428384Y-112645214D02*
X161542669Y-112573785D01*
X161542669Y-112573785D02*
X161599812Y-112502357D01*
X161599812Y-112502357D02*
X161656955Y-112359500D01*
X161656955Y-112359500D02*
X161656955Y-112216642D01*
X161656955Y-112216642D02*
X161599812Y-112073785D01*
X161599812Y-112073785D02*
X161542669Y-112002357D01*
X161542669Y-112002357D02*
X161428384Y-111930928D01*
X161428384Y-111930928D02*
X161142669Y-111930928D01*
X161142669Y-111930928D02*
X160971241Y-112002357D01*
X160456955Y-112430928D02*
X160456955Y-113930928D01*
X160456955Y-112502357D02*
X160342670Y-112430928D01*
X160342670Y-112430928D02*
X160114098Y-112430928D01*
X160114098Y-112430928D02*
X159999812Y-112502357D01*
X159999812Y-112502357D02*
X159942670Y-112573785D01*
X159942670Y-112573785D02*
X159885527Y-112716642D01*
X159885527Y-112716642D02*
X159885527Y-113145214D01*
X159885527Y-113145214D02*
X159942670Y-113288071D01*
X159942670Y-113288071D02*
X159999812Y-113359500D01*
X159999812Y-113359500D02*
X160114098Y-113430928D01*
X160114098Y-113430928D02*
X160342670Y-113430928D01*
X160342670Y-113430928D02*
X160456955Y-113359500D01*
X158914098Y-113359500D02*
X159028384Y-113430928D01*
X159028384Y-113430928D02*
X159256956Y-113430928D01*
X159256956Y-113430928D02*
X159371241Y-113359500D01*
X159371241Y-113359500D02*
X159428384Y-113216642D01*
X159428384Y-113216642D02*
X159428384Y-112645214D01*
X159428384Y-112645214D02*
X159371241Y-112502357D01*
X159371241Y-112502357D02*
X159256956Y-112430928D01*
X159256956Y-112430928D02*
X159028384Y-112430928D01*
X159028384Y-112430928D02*
X158914098Y-112502357D01*
X158914098Y-112502357D02*
X158856956Y-112645214D01*
X158856956Y-112645214D02*
X158856956Y-112788071D01*
X158856956Y-112788071D02*
X159428384Y-112930928D01*
X157828385Y-113430928D02*
X157828385Y-112645214D01*
X157828385Y-112645214D02*
X157885527Y-112502357D01*
X157885527Y-112502357D02*
X157999813Y-112430928D01*
X157999813Y-112430928D02*
X158228385Y-112430928D01*
X158228385Y-112430928D02*
X158342670Y-112502357D01*
X157828385Y-113359500D02*
X157942670Y-113430928D01*
X157942670Y-113430928D02*
X158228385Y-113430928D01*
X158228385Y-113430928D02*
X158342670Y-113359500D01*
X158342670Y-113359500D02*
X158399813Y-113216642D01*
X158399813Y-113216642D02*
X158399813Y-113073785D01*
X158399813Y-113073785D02*
X158342670Y-112930928D01*
X158342670Y-112930928D02*
X158228385Y-112859500D01*
X158228385Y-112859500D02*
X157942670Y-112859500D01*
X157942670Y-112859500D02*
X157828385Y-112788071D01*
X157256956Y-113430928D02*
X157256956Y-111930928D01*
X157142671Y-112859500D02*
X156799813Y-113430928D01*
X156799813Y-112430928D02*
X157256956Y-113002357D01*
X155828384Y-113359500D02*
X155942670Y-113430928D01*
X155942670Y-113430928D02*
X156171242Y-113430928D01*
X156171242Y-113430928D02*
X156285527Y-113359500D01*
X156285527Y-113359500D02*
X156342670Y-113216642D01*
X156342670Y-113216642D02*
X156342670Y-112645214D01*
X156342670Y-112645214D02*
X156285527Y-112502357D01*
X156285527Y-112502357D02*
X156171242Y-112430928D01*
X156171242Y-112430928D02*
X155942670Y-112430928D01*
X155942670Y-112430928D02*
X155828384Y-112502357D01*
X155828384Y-112502357D02*
X155771242Y-112645214D01*
X155771242Y-112645214D02*
X155771242Y-112788071D01*
X155771242Y-112788071D02*
X156342670Y-112930928D01*
X155256956Y-113430928D02*
X155256956Y-112430928D01*
X155256956Y-112716642D02*
X155199813Y-112573785D01*
X155199813Y-112573785D02*
X155142671Y-112502357D01*
X155142671Y-112502357D02*
X155028385Y-112430928D01*
X155028385Y-112430928D02*
X154914099Y-112430928D01*
D11*
X154295238Y-86099847D02*
X154295238Y-85099847D01*
X153819048Y-86099847D02*
X153819048Y-85099847D01*
X153819048Y-85099847D02*
X153247620Y-86099847D01*
X153247620Y-86099847D02*
X153247620Y-85099847D01*
X151533334Y-85099847D02*
X152009524Y-85099847D01*
X152009524Y-85099847D02*
X152057143Y-85576037D01*
X152057143Y-85576037D02*
X152009524Y-85528418D01*
X152009524Y-85528418D02*
X151914286Y-85480799D01*
X151914286Y-85480799D02*
X151676191Y-85480799D01*
X151676191Y-85480799D02*
X151580953Y-85528418D01*
X151580953Y-85528418D02*
X151533334Y-85576037D01*
X151533334Y-85576037D02*
X151485715Y-85671275D01*
X151485715Y-85671275D02*
X151485715Y-85909370D01*
X151485715Y-85909370D02*
X151533334Y-86004608D01*
X151533334Y-86004608D02*
X151580953Y-86052228D01*
X151580953Y-86052228D02*
X151676191Y-86099847D01*
X151676191Y-86099847D02*
X151914286Y-86099847D01*
X151914286Y-86099847D02*
X152009524Y-86052228D01*
X152009524Y-86052228D02*
X152057143Y-86004608D01*
X151200000Y-85099847D02*
X150866667Y-86099847D01*
X150866667Y-86099847D02*
X150533334Y-85099847D01*
X148914286Y-85147466D02*
X149009524Y-85099847D01*
X149009524Y-85099847D02*
X149152381Y-85099847D01*
X149152381Y-85099847D02*
X149295238Y-85147466D01*
X149295238Y-85147466D02*
X149390476Y-85242704D01*
X149390476Y-85242704D02*
X149438095Y-85337942D01*
X149438095Y-85337942D02*
X149485714Y-85528418D01*
X149485714Y-85528418D02*
X149485714Y-85671275D01*
X149485714Y-85671275D02*
X149438095Y-85861751D01*
X149438095Y-85861751D02*
X149390476Y-85956989D01*
X149390476Y-85956989D02*
X149295238Y-86052228D01*
X149295238Y-86052228D02*
X149152381Y-86099847D01*
X149152381Y-86099847D02*
X149057143Y-86099847D01*
X149057143Y-86099847D02*
X148914286Y-86052228D01*
X148914286Y-86052228D02*
X148866667Y-86004608D01*
X148866667Y-86004608D02*
X148866667Y-85671275D01*
X148866667Y-85671275D02*
X149057143Y-85671275D01*
X148438095Y-86099847D02*
X148438095Y-85099847D01*
X148438095Y-85099847D02*
X147866667Y-86099847D01*
X147866667Y-86099847D02*
X147866667Y-85099847D01*
X146771428Y-85099847D02*
X146200000Y-85099847D01*
X146485714Y-86099847D02*
X146485714Y-85099847D01*
X145961904Y-85099847D02*
X145295238Y-86099847D01*
X145295238Y-85099847D02*
X145961904Y-86099847D01*
X143580952Y-86099847D02*
X143914285Y-85623656D01*
X144152380Y-86099847D02*
X144152380Y-85099847D01*
X144152380Y-85099847D02*
X143771428Y-85099847D01*
X143771428Y-85099847D02*
X143676190Y-85147466D01*
X143676190Y-85147466D02*
X143628571Y-85195085D01*
X143628571Y-85195085D02*
X143580952Y-85290323D01*
X143580952Y-85290323D02*
X143580952Y-85433180D01*
X143580952Y-85433180D02*
X143628571Y-85528418D01*
X143628571Y-85528418D02*
X143676190Y-85576037D01*
X143676190Y-85576037D02*
X143771428Y-85623656D01*
X143771428Y-85623656D02*
X144152380Y-85623656D01*
X143247618Y-85099847D02*
X142580952Y-86099847D01*
X142580952Y-85099847D02*
X143247618Y-86099847D01*
X141533332Y-85099847D02*
X140914285Y-85099847D01*
X140914285Y-85099847D02*
X141247618Y-85480799D01*
X141247618Y-85480799D02*
X141104761Y-85480799D01*
X141104761Y-85480799D02*
X141009523Y-85528418D01*
X141009523Y-85528418D02*
X140961904Y-85576037D01*
X140961904Y-85576037D02*
X140914285Y-85671275D01*
X140914285Y-85671275D02*
X140914285Y-85909370D01*
X140914285Y-85909370D02*
X140961904Y-86004608D01*
X140961904Y-86004608D02*
X141009523Y-86052228D01*
X141009523Y-86052228D02*
X141104761Y-86099847D01*
X141104761Y-86099847D02*
X141390475Y-86099847D01*
X141390475Y-86099847D02*
X141485713Y-86052228D01*
X141485713Y-86052228D02*
X141533332Y-86004608D01*
X140628570Y-85099847D02*
X140295237Y-86099847D01*
X140295237Y-86099847D02*
X139961904Y-85099847D01*
X153723810Y-87709791D02*
X154057143Y-87233600D01*
X154295238Y-87709791D02*
X154295238Y-86709791D01*
X154295238Y-86709791D02*
X153914286Y-86709791D01*
X153914286Y-86709791D02*
X153819048Y-86757410D01*
X153819048Y-86757410D02*
X153771429Y-86805029D01*
X153771429Y-86805029D02*
X153723810Y-86900267D01*
X153723810Y-86900267D02*
X153723810Y-87043124D01*
X153723810Y-87043124D02*
X153771429Y-87138362D01*
X153771429Y-87138362D02*
X153819048Y-87185981D01*
X153819048Y-87185981D02*
X153914286Y-87233600D01*
X153914286Y-87233600D02*
X154295238Y-87233600D01*
X153295238Y-87185981D02*
X152961905Y-87185981D01*
X152819048Y-87709791D02*
X153295238Y-87709791D01*
X153295238Y-87709791D02*
X153295238Y-86709791D01*
X153295238Y-86709791D02*
X152819048Y-86709791D01*
X151152381Y-86709791D02*
X151628571Y-86709791D01*
X151628571Y-86709791D02*
X151676190Y-87185981D01*
X151676190Y-87185981D02*
X151628571Y-87138362D01*
X151628571Y-87138362D02*
X151533333Y-87090743D01*
X151533333Y-87090743D02*
X151295238Y-87090743D01*
X151295238Y-87090743D02*
X151200000Y-87138362D01*
X151200000Y-87138362D02*
X151152381Y-87185981D01*
X151152381Y-87185981D02*
X151104762Y-87281219D01*
X151104762Y-87281219D02*
X151104762Y-87519314D01*
X151104762Y-87519314D02*
X151152381Y-87614552D01*
X151152381Y-87614552D02*
X151200000Y-87662172D01*
X151200000Y-87662172D02*
X151295238Y-87709791D01*
X151295238Y-87709791D02*
X151533333Y-87709791D01*
X151533333Y-87709791D02*
X151628571Y-87662172D01*
X151628571Y-87662172D02*
X151676190Y-87614552D01*
X150819047Y-86709791D02*
X150485714Y-87709791D01*
X150485714Y-87709791D02*
X150152381Y-86709791D01*
X148533333Y-86757410D02*
X148628571Y-86709791D01*
X148628571Y-86709791D02*
X148771428Y-86709791D01*
X148771428Y-86709791D02*
X148914285Y-86757410D01*
X148914285Y-86757410D02*
X149009523Y-86852648D01*
X149009523Y-86852648D02*
X149057142Y-86947886D01*
X149057142Y-86947886D02*
X149104761Y-87138362D01*
X149104761Y-87138362D02*
X149104761Y-87281219D01*
X149104761Y-87281219D02*
X149057142Y-87471695D01*
X149057142Y-87471695D02*
X149009523Y-87566933D01*
X149009523Y-87566933D02*
X148914285Y-87662172D01*
X148914285Y-87662172D02*
X148771428Y-87709791D01*
X148771428Y-87709791D02*
X148676190Y-87709791D01*
X148676190Y-87709791D02*
X148533333Y-87662172D01*
X148533333Y-87662172D02*
X148485714Y-87614552D01*
X148485714Y-87614552D02*
X148485714Y-87281219D01*
X148485714Y-87281219D02*
X148676190Y-87281219D01*
X148057142Y-87709791D02*
X148057142Y-86709791D01*
X148057142Y-86709791D02*
X147485714Y-87709791D01*
X147485714Y-87709791D02*
X147485714Y-86709791D01*
X145676190Y-87614552D02*
X145723809Y-87662172D01*
X145723809Y-87662172D02*
X145866666Y-87709791D01*
X145866666Y-87709791D02*
X145961904Y-87709791D01*
X145961904Y-87709791D02*
X146104761Y-87662172D01*
X146104761Y-87662172D02*
X146199999Y-87566933D01*
X146199999Y-87566933D02*
X146247618Y-87471695D01*
X146247618Y-87471695D02*
X146295237Y-87281219D01*
X146295237Y-87281219D02*
X146295237Y-87138362D01*
X146295237Y-87138362D02*
X146247618Y-86947886D01*
X146247618Y-86947886D02*
X146199999Y-86852648D01*
X146199999Y-86852648D02*
X146104761Y-86757410D01*
X146104761Y-86757410D02*
X145961904Y-86709791D01*
X145961904Y-86709791D02*
X145866666Y-86709791D01*
X145866666Y-86709791D02*
X145723809Y-86757410D01*
X145723809Y-86757410D02*
X145676190Y-86805029D01*
X144771428Y-87709791D02*
X145247618Y-87709791D01*
X145247618Y-87709791D02*
X145247618Y-86709791D01*
X143676189Y-87709791D02*
X143676189Y-86709791D01*
X143676189Y-86709791D02*
X143438094Y-86709791D01*
X143438094Y-86709791D02*
X143295237Y-86757410D01*
X143295237Y-86757410D02*
X143199999Y-86852648D01*
X143199999Y-86852648D02*
X143152380Y-86947886D01*
X143152380Y-86947886D02*
X143104761Y-87138362D01*
X143104761Y-87138362D02*
X143104761Y-87281219D01*
X143104761Y-87281219D02*
X143152380Y-87471695D01*
X143152380Y-87471695D02*
X143199999Y-87566933D01*
X143199999Y-87566933D02*
X143295237Y-87662172D01*
X143295237Y-87662172D02*
X143438094Y-87709791D01*
X143438094Y-87709791D02*
X143676189Y-87709791D01*
X142676189Y-87709791D02*
X142676189Y-86709791D01*
X141533332Y-86709791D02*
X140914285Y-86709791D01*
X140914285Y-86709791D02*
X141247618Y-87090743D01*
X141247618Y-87090743D02*
X141104761Y-87090743D01*
X141104761Y-87090743D02*
X141009523Y-87138362D01*
X141009523Y-87138362D02*
X140961904Y-87185981D01*
X140961904Y-87185981D02*
X140914285Y-87281219D01*
X140914285Y-87281219D02*
X140914285Y-87519314D01*
X140914285Y-87519314D02*
X140961904Y-87614552D01*
X140961904Y-87614552D02*
X141009523Y-87662172D01*
X141009523Y-87662172D02*
X141104761Y-87709791D01*
X141104761Y-87709791D02*
X141390475Y-87709791D01*
X141390475Y-87709791D02*
X141485713Y-87662172D01*
X141485713Y-87662172D02*
X141533332Y-87614552D01*
X140628570Y-86709791D02*
X140295237Y-87709791D01*
X140295237Y-87709791D02*
X139961904Y-86709791D01*
X116904819Y-96257142D02*
X116428628Y-95923809D01*
X116904819Y-95685714D02*
X115904819Y-95685714D01*
X115904819Y-95685714D02*
X115904819Y-96066666D01*
X115904819Y-96066666D02*
X115952438Y-96161904D01*
X115952438Y-96161904D02*
X116000057Y-96209523D01*
X116000057Y-96209523D02*
X116095295Y-96257142D01*
X116095295Y-96257142D02*
X116238152Y-96257142D01*
X116238152Y-96257142D02*
X116333390Y-96209523D01*
X116333390Y-96209523D02*
X116381009Y-96161904D01*
X116381009Y-96161904D02*
X116428628Y-96066666D01*
X116428628Y-96066666D02*
X116428628Y-95685714D01*
X115904819Y-96590476D02*
X115904819Y-97257142D01*
X115904819Y-97257142D02*
X116904819Y-96828571D01*
X115904819Y-98066666D02*
X115904819Y-97876190D01*
X115904819Y-97876190D02*
X115952438Y-97780952D01*
X115952438Y-97780952D02*
X116000057Y-97733333D01*
X116000057Y-97733333D02*
X116142914Y-97638095D01*
X116142914Y-97638095D02*
X116333390Y-97590476D01*
X116333390Y-97590476D02*
X116714342Y-97590476D01*
X116714342Y-97590476D02*
X116809580Y-97638095D01*
X116809580Y-97638095D02*
X116857200Y-97685714D01*
X116857200Y-97685714D02*
X116904819Y-97780952D01*
X116904819Y-97780952D02*
X116904819Y-97971428D01*
X116904819Y-97971428D02*
X116857200Y-98066666D01*
X116857200Y-98066666D02*
X116809580Y-98114285D01*
X116809580Y-98114285D02*
X116714342Y-98161904D01*
X116714342Y-98161904D02*
X116476247Y-98161904D01*
X116476247Y-98161904D02*
X116381009Y-98114285D01*
X116381009Y-98114285D02*
X116333390Y-98066666D01*
X116333390Y-98066666D02*
X116285771Y-97971428D01*
X116285771Y-97971428D02*
X116285771Y-97780952D01*
X116285771Y-97780952D02*
X116333390Y-97685714D01*
X116333390Y-97685714D02*
X116381009Y-97638095D01*
X116381009Y-97638095D02*
X116476247Y-97590476D01*
X198854819Y-138961904D02*
X198854819Y-139152380D01*
X198854819Y-139152380D02*
X198902438Y-139247618D01*
X198902438Y-139247618D02*
X198997676Y-139342856D01*
X198997676Y-139342856D02*
X199188152Y-139390475D01*
X199188152Y-139390475D02*
X199521485Y-139390475D01*
X199521485Y-139390475D02*
X199711961Y-139342856D01*
X199711961Y-139342856D02*
X199807200Y-139247618D01*
X199807200Y-139247618D02*
X199854819Y-139152380D01*
X199854819Y-139152380D02*
X199854819Y-138961904D01*
X199854819Y-138961904D02*
X199807200Y-138866666D01*
X199807200Y-138866666D02*
X199711961Y-138771428D01*
X199711961Y-138771428D02*
X199521485Y-138723809D01*
X199521485Y-138723809D02*
X199188152Y-138723809D01*
X199188152Y-138723809D02*
X198997676Y-138771428D01*
X198997676Y-138771428D02*
X198902438Y-138866666D01*
X198902438Y-138866666D02*
X198854819Y-138961904D01*
X199854819Y-139819047D02*
X198854819Y-139819047D01*
X198854819Y-139819047D02*
X199854819Y-140390475D01*
X199854819Y-140390475D02*
X198854819Y-140390475D01*
X199759580Y-142199999D02*
X199807200Y-142152380D01*
X199807200Y-142152380D02*
X199854819Y-142009523D01*
X199854819Y-142009523D02*
X199854819Y-141914285D01*
X199854819Y-141914285D02*
X199807200Y-141771428D01*
X199807200Y-141771428D02*
X199711961Y-141676190D01*
X199711961Y-141676190D02*
X199616723Y-141628571D01*
X199616723Y-141628571D02*
X199426247Y-141580952D01*
X199426247Y-141580952D02*
X199283390Y-141580952D01*
X199283390Y-141580952D02*
X199092914Y-141628571D01*
X199092914Y-141628571D02*
X198997676Y-141676190D01*
X198997676Y-141676190D02*
X198902438Y-141771428D01*
X198902438Y-141771428D02*
X198854819Y-141914285D01*
X198854819Y-141914285D02*
X198854819Y-142009523D01*
X198854819Y-142009523D02*
X198902438Y-142152380D01*
X198902438Y-142152380D02*
X198950057Y-142199999D01*
X199569104Y-142580952D02*
X199569104Y-143057142D01*
X199854819Y-142485714D02*
X198854819Y-142819047D01*
X198854819Y-142819047D02*
X199854819Y-143152380D01*
X199854819Y-143485714D02*
X198854819Y-143485714D01*
X198854819Y-143485714D02*
X199854819Y-144057142D01*
X199854819Y-144057142D02*
X198854819Y-144057142D01*
X198854819Y-145152381D02*
X198854819Y-145723809D01*
X199854819Y-145438095D02*
X198854819Y-145438095D01*
X199331009Y-146057143D02*
X199331009Y-146390476D01*
X199854819Y-146533333D02*
X199854819Y-146057143D01*
X199854819Y-146057143D02*
X198854819Y-146057143D01*
X198854819Y-146057143D02*
X198854819Y-146533333D01*
X199854819Y-147533333D02*
X199378628Y-147200000D01*
X199854819Y-146961905D02*
X198854819Y-146961905D01*
X198854819Y-146961905D02*
X198854819Y-147342857D01*
X198854819Y-147342857D02*
X198902438Y-147438095D01*
X198902438Y-147438095D02*
X198950057Y-147485714D01*
X198950057Y-147485714D02*
X199045295Y-147533333D01*
X199045295Y-147533333D02*
X199188152Y-147533333D01*
X199188152Y-147533333D02*
X199283390Y-147485714D01*
X199283390Y-147485714D02*
X199331009Y-147438095D01*
X199331009Y-147438095D02*
X199378628Y-147342857D01*
X199378628Y-147342857D02*
X199378628Y-146961905D01*
X199854819Y-147961905D02*
X198854819Y-147961905D01*
X198854819Y-147961905D02*
X199569104Y-148295238D01*
X199569104Y-148295238D02*
X198854819Y-148628571D01*
X198854819Y-148628571D02*
X199854819Y-148628571D01*
X182214285Y-119502438D02*
X182309523Y-119454819D01*
X182309523Y-119454819D02*
X182452380Y-119454819D01*
X182452380Y-119454819D02*
X182595237Y-119502438D01*
X182595237Y-119502438D02*
X182690475Y-119597676D01*
X182690475Y-119597676D02*
X182738094Y-119692914D01*
X182738094Y-119692914D02*
X182785713Y-119883390D01*
X182785713Y-119883390D02*
X182785713Y-120026247D01*
X182785713Y-120026247D02*
X182738094Y-120216723D01*
X182738094Y-120216723D02*
X182690475Y-120311961D01*
X182690475Y-120311961D02*
X182595237Y-120407200D01*
X182595237Y-120407200D02*
X182452380Y-120454819D01*
X182452380Y-120454819D02*
X182357142Y-120454819D01*
X182357142Y-120454819D02*
X182214285Y-120407200D01*
X182214285Y-120407200D02*
X182166666Y-120359580D01*
X182166666Y-120359580D02*
X182166666Y-120026247D01*
X182166666Y-120026247D02*
X182357142Y-120026247D01*
X181833332Y-119454819D02*
X181214285Y-119454819D01*
X181214285Y-119454819D02*
X181547618Y-119835771D01*
X181547618Y-119835771D02*
X181404761Y-119835771D01*
X181404761Y-119835771D02*
X181309523Y-119883390D01*
X181309523Y-119883390D02*
X181261904Y-119931009D01*
X181261904Y-119931009D02*
X181214285Y-120026247D01*
X181214285Y-120026247D02*
X181214285Y-120264342D01*
X181214285Y-120264342D02*
X181261904Y-120359580D01*
X181261904Y-120359580D02*
X181309523Y-120407200D01*
X181309523Y-120407200D02*
X181404761Y-120454819D01*
X181404761Y-120454819D02*
X181690475Y-120454819D01*
X181690475Y-120454819D02*
X181785713Y-120407200D01*
X181785713Y-120407200D02*
X181833332Y-120359580D01*
X198754819Y-129138095D02*
X198754819Y-129328571D01*
X198754819Y-129328571D02*
X198802438Y-129423809D01*
X198802438Y-129423809D02*
X198897676Y-129519047D01*
X198897676Y-129519047D02*
X199088152Y-129566666D01*
X199088152Y-129566666D02*
X199421485Y-129566666D01*
X199421485Y-129566666D02*
X199611961Y-129519047D01*
X199611961Y-129519047D02*
X199707200Y-129423809D01*
X199707200Y-129423809D02*
X199754819Y-129328571D01*
X199754819Y-129328571D02*
X199754819Y-129138095D01*
X199754819Y-129138095D02*
X199707200Y-129042857D01*
X199707200Y-129042857D02*
X199611961Y-128947619D01*
X199611961Y-128947619D02*
X199421485Y-128900000D01*
X199421485Y-128900000D02*
X199088152Y-128900000D01*
X199088152Y-128900000D02*
X198897676Y-128947619D01*
X198897676Y-128947619D02*
X198802438Y-129042857D01*
X198802438Y-129042857D02*
X198754819Y-129138095D01*
X199754819Y-129995238D02*
X198754819Y-129995238D01*
X198754819Y-129995238D02*
X199754819Y-130566666D01*
X199754819Y-130566666D02*
X198754819Y-130566666D01*
X199754819Y-132376190D02*
X199278628Y-132042857D01*
X199754819Y-131804762D02*
X198754819Y-131804762D01*
X198754819Y-131804762D02*
X198754819Y-132185714D01*
X198754819Y-132185714D02*
X198802438Y-132280952D01*
X198802438Y-132280952D02*
X198850057Y-132328571D01*
X198850057Y-132328571D02*
X198945295Y-132376190D01*
X198945295Y-132376190D02*
X199088152Y-132376190D01*
X199088152Y-132376190D02*
X199183390Y-132328571D01*
X199183390Y-132328571D02*
X199231009Y-132280952D01*
X199231009Y-132280952D02*
X199278628Y-132185714D01*
X199278628Y-132185714D02*
X199278628Y-131804762D01*
X199707200Y-132757143D02*
X199754819Y-132900000D01*
X199754819Y-132900000D02*
X199754819Y-133138095D01*
X199754819Y-133138095D02*
X199707200Y-133233333D01*
X199707200Y-133233333D02*
X199659580Y-133280952D01*
X199659580Y-133280952D02*
X199564342Y-133328571D01*
X199564342Y-133328571D02*
X199469104Y-133328571D01*
X199469104Y-133328571D02*
X199373866Y-133280952D01*
X199373866Y-133280952D02*
X199326247Y-133233333D01*
X199326247Y-133233333D02*
X199278628Y-133138095D01*
X199278628Y-133138095D02*
X199231009Y-132947619D01*
X199231009Y-132947619D02*
X199183390Y-132852381D01*
X199183390Y-132852381D02*
X199135771Y-132804762D01*
X199135771Y-132804762D02*
X199040533Y-132757143D01*
X199040533Y-132757143D02*
X198945295Y-132757143D01*
X198945295Y-132757143D02*
X198850057Y-132804762D01*
X198850057Y-132804762D02*
X198802438Y-132852381D01*
X198802438Y-132852381D02*
X198754819Y-132947619D01*
X198754819Y-132947619D02*
X198754819Y-133185714D01*
X198754819Y-133185714D02*
X198802438Y-133328571D01*
X198754819Y-134376191D02*
X198754819Y-134947619D01*
X199754819Y-134661905D02*
X198754819Y-134661905D01*
X199231009Y-135280953D02*
X199231009Y-135614286D01*
X199754819Y-135757143D02*
X199754819Y-135280953D01*
X199754819Y-135280953D02*
X198754819Y-135280953D01*
X198754819Y-135280953D02*
X198754819Y-135757143D01*
X199754819Y-136757143D02*
X199278628Y-136423810D01*
X199754819Y-136185715D02*
X198754819Y-136185715D01*
X198754819Y-136185715D02*
X198754819Y-136566667D01*
X198754819Y-136566667D02*
X198802438Y-136661905D01*
X198802438Y-136661905D02*
X198850057Y-136709524D01*
X198850057Y-136709524D02*
X198945295Y-136757143D01*
X198945295Y-136757143D02*
X199088152Y-136757143D01*
X199088152Y-136757143D02*
X199183390Y-136709524D01*
X199183390Y-136709524D02*
X199231009Y-136661905D01*
X199231009Y-136661905D02*
X199278628Y-136566667D01*
X199278628Y-136566667D02*
X199278628Y-136185715D01*
X199754819Y-137185715D02*
X198754819Y-137185715D01*
X198754819Y-137185715D02*
X199469104Y-137519048D01*
X199469104Y-137519048D02*
X198754819Y-137852381D01*
X198754819Y-137852381D02*
X199754819Y-137852381D01*
X108849819Y-71040476D02*
X109564104Y-71040476D01*
X109564104Y-71040476D02*
X109706961Y-70992857D01*
X109706961Y-70992857D02*
X109802200Y-70897619D01*
X109802200Y-70897619D02*
X109849819Y-70754762D01*
X109849819Y-70754762D02*
X109849819Y-70659524D01*
X109849819Y-72040476D02*
X109849819Y-71469048D01*
X109849819Y-71754762D02*
X108849819Y-71754762D01*
X108849819Y-71754762D02*
X108992676Y-71659524D01*
X108992676Y-71659524D02*
X109087914Y-71564286D01*
X109087914Y-71564286D02*
X109135533Y-71469048D01*
X108849819Y-72373810D02*
X108849819Y-72992857D01*
X108849819Y-72992857D02*
X109230771Y-72659524D01*
X109230771Y-72659524D02*
X109230771Y-72802381D01*
X109230771Y-72802381D02*
X109278390Y-72897619D01*
X109278390Y-72897619D02*
X109326009Y-72945238D01*
X109326009Y-72945238D02*
X109421247Y-72992857D01*
X109421247Y-72992857D02*
X109659342Y-72992857D01*
X109659342Y-72992857D02*
X109754580Y-72945238D01*
X109754580Y-72945238D02*
X109802200Y-72897619D01*
X109802200Y-72897619D02*
X109849819Y-72802381D01*
X109849819Y-72802381D02*
X109849819Y-72516667D01*
X109849819Y-72516667D02*
X109802200Y-72421429D01*
X109802200Y-72421429D02*
X109754580Y-72373810D01*
X120204819Y-99957142D02*
X119728628Y-99623809D01*
X120204819Y-99385714D02*
X119204819Y-99385714D01*
X119204819Y-99385714D02*
X119204819Y-99766666D01*
X119204819Y-99766666D02*
X119252438Y-99861904D01*
X119252438Y-99861904D02*
X119300057Y-99909523D01*
X119300057Y-99909523D02*
X119395295Y-99957142D01*
X119395295Y-99957142D02*
X119538152Y-99957142D01*
X119538152Y-99957142D02*
X119633390Y-99909523D01*
X119633390Y-99909523D02*
X119681009Y-99861904D01*
X119681009Y-99861904D02*
X119728628Y-99766666D01*
X119728628Y-99766666D02*
X119728628Y-99385714D01*
X119204819Y-100290476D02*
X119204819Y-100957142D01*
X119204819Y-100957142D02*
X120204819Y-100528571D01*
X119204819Y-101242857D02*
X119204819Y-101909523D01*
X119204819Y-101909523D02*
X120204819Y-101480952D01*
X169033333Y-143754819D02*
X169033333Y-144469104D01*
X169033333Y-144469104D02*
X169080952Y-144611961D01*
X169080952Y-144611961D02*
X169176190Y-144707200D01*
X169176190Y-144707200D02*
X169319047Y-144754819D01*
X169319047Y-144754819D02*
X169414285Y-144754819D01*
X168128571Y-143754819D02*
X168319047Y-143754819D01*
X168319047Y-143754819D02*
X168414285Y-143802438D01*
X168414285Y-143802438D02*
X168461904Y-143850057D01*
X168461904Y-143850057D02*
X168557142Y-143992914D01*
X168557142Y-143992914D02*
X168604761Y-144183390D01*
X168604761Y-144183390D02*
X168604761Y-144564342D01*
X168604761Y-144564342D02*
X168557142Y-144659580D01*
X168557142Y-144659580D02*
X168509523Y-144707200D01*
X168509523Y-144707200D02*
X168414285Y-144754819D01*
X168414285Y-144754819D02*
X168223809Y-144754819D01*
X168223809Y-144754819D02*
X168128571Y-144707200D01*
X168128571Y-144707200D02*
X168080952Y-144659580D01*
X168080952Y-144659580D02*
X168033333Y-144564342D01*
X168033333Y-144564342D02*
X168033333Y-144326247D01*
X168033333Y-144326247D02*
X168080952Y-144231009D01*
X168080952Y-144231009D02*
X168128571Y-144183390D01*
X168128571Y-144183390D02*
X168223809Y-144135771D01*
X168223809Y-144135771D02*
X168414285Y-144135771D01*
X168414285Y-144135771D02*
X168509523Y-144183390D01*
X168509523Y-144183390D02*
X168557142Y-144231009D01*
X168557142Y-144231009D02*
X168604761Y-144326247D01*
X169654819Y-126399999D02*
X169654819Y-125923809D01*
X169654819Y-125923809D02*
X168654819Y-125923809D01*
X169559580Y-127304761D02*
X169607200Y-127257142D01*
X169607200Y-127257142D02*
X169654819Y-127114285D01*
X169654819Y-127114285D02*
X169654819Y-127019047D01*
X169654819Y-127019047D02*
X169607200Y-126876190D01*
X169607200Y-126876190D02*
X169511961Y-126780952D01*
X169511961Y-126780952D02*
X169416723Y-126733333D01*
X169416723Y-126733333D02*
X169226247Y-126685714D01*
X169226247Y-126685714D02*
X169083390Y-126685714D01*
X169083390Y-126685714D02*
X168892914Y-126733333D01*
X168892914Y-126733333D02*
X168797676Y-126780952D01*
X168797676Y-126780952D02*
X168702438Y-126876190D01*
X168702438Y-126876190D02*
X168654819Y-127019047D01*
X168654819Y-127019047D02*
X168654819Y-127114285D01*
X168654819Y-127114285D02*
X168702438Y-127257142D01*
X168702438Y-127257142D02*
X168750057Y-127304761D01*
X169654819Y-127733333D02*
X168654819Y-127733333D01*
X168654819Y-127733333D02*
X168654819Y-127971428D01*
X168654819Y-127971428D02*
X168702438Y-128114285D01*
X168702438Y-128114285D02*
X168797676Y-128209523D01*
X168797676Y-128209523D02*
X168892914Y-128257142D01*
X168892914Y-128257142D02*
X169083390Y-128304761D01*
X169083390Y-128304761D02*
X169226247Y-128304761D01*
X169226247Y-128304761D02*
X169416723Y-128257142D01*
X169416723Y-128257142D02*
X169511961Y-128209523D01*
X169511961Y-128209523D02*
X169607200Y-128114285D01*
X169607200Y-128114285D02*
X169654819Y-127971428D01*
X169654819Y-127971428D02*
X169654819Y-127733333D01*
X169750057Y-128495238D02*
X169750057Y-129257142D01*
X169654819Y-130066666D02*
X169178628Y-129733333D01*
X169654819Y-129495238D02*
X168654819Y-129495238D01*
X168654819Y-129495238D02*
X168654819Y-129876190D01*
X168654819Y-129876190D02*
X168702438Y-129971428D01*
X168702438Y-129971428D02*
X168750057Y-130019047D01*
X168750057Y-130019047D02*
X168845295Y-130066666D01*
X168845295Y-130066666D02*
X168988152Y-130066666D01*
X168988152Y-130066666D02*
X169083390Y-130019047D01*
X169083390Y-130019047D02*
X169131009Y-129971428D01*
X169131009Y-129971428D02*
X169178628Y-129876190D01*
X169178628Y-129876190D02*
X169178628Y-129495238D01*
X169131009Y-130495238D02*
X169131009Y-130828571D01*
X169654819Y-130971428D02*
X169654819Y-130495238D01*
X169654819Y-130495238D02*
X168654819Y-130495238D01*
X168654819Y-130495238D02*
X168654819Y-130971428D01*
X169607200Y-131352381D02*
X169654819Y-131495238D01*
X169654819Y-131495238D02*
X169654819Y-131733333D01*
X169654819Y-131733333D02*
X169607200Y-131828571D01*
X169607200Y-131828571D02*
X169559580Y-131876190D01*
X169559580Y-131876190D02*
X169464342Y-131923809D01*
X169464342Y-131923809D02*
X169369104Y-131923809D01*
X169369104Y-131923809D02*
X169273866Y-131876190D01*
X169273866Y-131876190D02*
X169226247Y-131828571D01*
X169226247Y-131828571D02*
X169178628Y-131733333D01*
X169178628Y-131733333D02*
X169131009Y-131542857D01*
X169131009Y-131542857D02*
X169083390Y-131447619D01*
X169083390Y-131447619D02*
X169035771Y-131400000D01*
X169035771Y-131400000D02*
X168940533Y-131352381D01*
X168940533Y-131352381D02*
X168845295Y-131352381D01*
X168845295Y-131352381D02*
X168750057Y-131400000D01*
X168750057Y-131400000D02*
X168702438Y-131447619D01*
X168702438Y-131447619D02*
X168654819Y-131542857D01*
X168654819Y-131542857D02*
X168654819Y-131780952D01*
X168654819Y-131780952D02*
X168702438Y-131923809D01*
X160961905Y-145779104D02*
X160485715Y-145779104D01*
X161057143Y-146064819D02*
X160723810Y-145064819D01*
X160723810Y-145064819D02*
X160390477Y-146064819D01*
X160057143Y-145398152D02*
X160057143Y-146064819D01*
X160057143Y-145493390D02*
X160009524Y-145445771D01*
X160009524Y-145445771D02*
X159914286Y-145398152D01*
X159914286Y-145398152D02*
X159771429Y-145398152D01*
X159771429Y-145398152D02*
X159676191Y-145445771D01*
X159676191Y-145445771D02*
X159628572Y-145541009D01*
X159628572Y-145541009D02*
X159628572Y-146064819D01*
X159295238Y-145398152D02*
X158914286Y-145398152D01*
X159152381Y-145064819D02*
X159152381Y-145921961D01*
X159152381Y-145921961D02*
X159104762Y-146017200D01*
X159104762Y-146017200D02*
X159009524Y-146064819D01*
X159009524Y-146064819D02*
X158914286Y-146064819D01*
X158200000Y-146017200D02*
X158295238Y-146064819D01*
X158295238Y-146064819D02*
X158485714Y-146064819D01*
X158485714Y-146064819D02*
X158580952Y-146017200D01*
X158580952Y-146017200D02*
X158628571Y-145921961D01*
X158628571Y-145921961D02*
X158628571Y-145541009D01*
X158628571Y-145541009D02*
X158580952Y-145445771D01*
X158580952Y-145445771D02*
X158485714Y-145398152D01*
X158485714Y-145398152D02*
X158295238Y-145398152D01*
X158295238Y-145398152D02*
X158200000Y-145445771D01*
X158200000Y-145445771D02*
X158152381Y-145541009D01*
X158152381Y-145541009D02*
X158152381Y-145636247D01*
X158152381Y-145636247D02*
X158628571Y-145731485D01*
X157723809Y-145398152D02*
X157723809Y-146064819D01*
X157723809Y-145493390D02*
X157676190Y-145445771D01*
X157676190Y-145445771D02*
X157580952Y-145398152D01*
X157580952Y-145398152D02*
X157438095Y-145398152D01*
X157438095Y-145398152D02*
X157342857Y-145445771D01*
X157342857Y-145445771D02*
X157295238Y-145541009D01*
X157295238Y-145541009D02*
X157295238Y-146064819D01*
X156819047Y-145398152D02*
X156819047Y-146064819D01*
X156819047Y-145493390D02*
X156771428Y-145445771D01*
X156771428Y-145445771D02*
X156676190Y-145398152D01*
X156676190Y-145398152D02*
X156533333Y-145398152D01*
X156533333Y-145398152D02*
X156438095Y-145445771D01*
X156438095Y-145445771D02*
X156390476Y-145541009D01*
X156390476Y-145541009D02*
X156390476Y-146064819D01*
X155485714Y-146064819D02*
X155485714Y-145541009D01*
X155485714Y-145541009D02*
X155533333Y-145445771D01*
X155533333Y-145445771D02*
X155628571Y-145398152D01*
X155628571Y-145398152D02*
X155819047Y-145398152D01*
X155819047Y-145398152D02*
X155914285Y-145445771D01*
X155485714Y-146017200D02*
X155580952Y-146064819D01*
X155580952Y-146064819D02*
X155819047Y-146064819D01*
X155819047Y-146064819D02*
X155914285Y-146017200D01*
X155914285Y-146017200D02*
X155961904Y-145921961D01*
X155961904Y-145921961D02*
X155961904Y-145826723D01*
X155961904Y-145826723D02*
X155914285Y-145731485D01*
X155914285Y-145731485D02*
X155819047Y-145683866D01*
X155819047Y-145683866D02*
X155580952Y-145683866D01*
X155580952Y-145683866D02*
X155485714Y-145636247D01*
X154295237Y-145779104D02*
X153819047Y-145779104D01*
X154390475Y-146064819D02*
X154057142Y-145064819D01*
X154057142Y-145064819D02*
X153723809Y-146064819D01*
X153390475Y-146064819D02*
X153390475Y-145398152D01*
X153390475Y-145588628D02*
X153342856Y-145493390D01*
X153342856Y-145493390D02*
X153295237Y-145445771D01*
X153295237Y-145445771D02*
X153199999Y-145398152D01*
X153199999Y-145398152D02*
X153104761Y-145398152D01*
X152390475Y-146017200D02*
X152485713Y-146064819D01*
X152485713Y-146064819D02*
X152676189Y-146064819D01*
X152676189Y-146064819D02*
X152771427Y-146017200D01*
X152771427Y-146017200D02*
X152819046Y-145921961D01*
X152819046Y-145921961D02*
X152819046Y-145541009D01*
X152819046Y-145541009D02*
X152771427Y-145445771D01*
X152771427Y-145445771D02*
X152676189Y-145398152D01*
X152676189Y-145398152D02*
X152485713Y-145398152D01*
X152485713Y-145398152D02*
X152390475Y-145445771D01*
X152390475Y-145445771D02*
X152342856Y-145541009D01*
X152342856Y-145541009D02*
X152342856Y-145636247D01*
X152342856Y-145636247D02*
X152819046Y-145731485D01*
X151485713Y-146064819D02*
X151485713Y-145541009D01*
X151485713Y-145541009D02*
X151533332Y-145445771D01*
X151533332Y-145445771D02*
X151628570Y-145398152D01*
X151628570Y-145398152D02*
X151819046Y-145398152D01*
X151819046Y-145398152D02*
X151914284Y-145445771D01*
X151485713Y-146017200D02*
X151580951Y-146064819D01*
X151580951Y-146064819D02*
X151819046Y-146064819D01*
X151819046Y-146064819D02*
X151914284Y-146017200D01*
X151914284Y-146017200D02*
X151961903Y-145921961D01*
X151961903Y-145921961D02*
X151961903Y-145826723D01*
X151961903Y-145826723D02*
X151914284Y-145731485D01*
X151914284Y-145731485D02*
X151819046Y-145683866D01*
X151819046Y-145683866D02*
X151580951Y-145683866D01*
X151580951Y-145683866D02*
X151485713Y-145636247D01*
X164414285Y-81056009D02*
X164747618Y-81056009D01*
X164747618Y-81579819D02*
X164747618Y-80579819D01*
X164747618Y-80579819D02*
X164271428Y-80579819D01*
X163938094Y-81294104D02*
X163461904Y-81294104D01*
X164033332Y-81579819D02*
X163699999Y-80579819D01*
X163699999Y-80579819D02*
X163366666Y-81579819D01*
X163033332Y-81579819D02*
X163033332Y-80579819D01*
X163033332Y-80579819D02*
X162461904Y-81579819D01*
X162461904Y-81579819D02*
X162461904Y-80579819D01*
X161509523Y-80579819D02*
X161985713Y-80579819D01*
X161985713Y-80579819D02*
X162033332Y-81056009D01*
X162033332Y-81056009D02*
X161985713Y-81008390D01*
X161985713Y-81008390D02*
X161890475Y-80960771D01*
X161890475Y-80960771D02*
X161652380Y-80960771D01*
X161652380Y-80960771D02*
X161557142Y-81008390D01*
X161557142Y-81008390D02*
X161509523Y-81056009D01*
X161509523Y-81056009D02*
X161461904Y-81151247D01*
X161461904Y-81151247D02*
X161461904Y-81389342D01*
X161461904Y-81389342D02*
X161509523Y-81484580D01*
X161509523Y-81484580D02*
X161557142Y-81532200D01*
X161557142Y-81532200D02*
X161652380Y-81579819D01*
X161652380Y-81579819D02*
X161890475Y-81579819D01*
X161890475Y-81579819D02*
X161985713Y-81532200D01*
X161985713Y-81532200D02*
X162033332Y-81484580D01*
X161176189Y-80579819D02*
X160842856Y-81579819D01*
X160842856Y-81579819D02*
X160509523Y-80579819D01*
X133959523Y-109504819D02*
X134435713Y-109504819D01*
X134435713Y-109504819D02*
X134483332Y-109981009D01*
X134483332Y-109981009D02*
X134435713Y-109933390D01*
X134435713Y-109933390D02*
X134340475Y-109885771D01*
X134340475Y-109885771D02*
X134102380Y-109885771D01*
X134102380Y-109885771D02*
X134007142Y-109933390D01*
X134007142Y-109933390D02*
X133959523Y-109981009D01*
X133959523Y-109981009D02*
X133911904Y-110076247D01*
X133911904Y-110076247D02*
X133911904Y-110314342D01*
X133911904Y-110314342D02*
X133959523Y-110409580D01*
X133959523Y-110409580D02*
X134007142Y-110457200D01*
X134007142Y-110457200D02*
X134102380Y-110504819D01*
X134102380Y-110504819D02*
X134340475Y-110504819D01*
X134340475Y-110504819D02*
X134435713Y-110457200D01*
X134435713Y-110457200D02*
X134483332Y-110409580D01*
X133626189Y-109504819D02*
X133292856Y-110504819D01*
X133292856Y-110504819D02*
X132959523Y-109504819D01*
X132864285Y-110600057D02*
X132102380Y-110600057D01*
X131864284Y-110504819D02*
X131864284Y-109504819D01*
X131864284Y-109504819D02*
X131626189Y-109504819D01*
X131626189Y-109504819D02*
X131483332Y-109552438D01*
X131483332Y-109552438D02*
X131388094Y-109647676D01*
X131388094Y-109647676D02*
X131340475Y-109742914D01*
X131340475Y-109742914D02*
X131292856Y-109933390D01*
X131292856Y-109933390D02*
X131292856Y-110076247D01*
X131292856Y-110076247D02*
X131340475Y-110266723D01*
X131340475Y-110266723D02*
X131388094Y-110361961D01*
X131388094Y-110361961D02*
X131483332Y-110457200D01*
X131483332Y-110457200D02*
X131626189Y-110504819D01*
X131626189Y-110504819D02*
X131864284Y-110504819D01*
X130864284Y-110504819D02*
X130864284Y-109504819D01*
X129816666Y-110504819D02*
X130149999Y-110028628D01*
X130388094Y-110504819D02*
X130388094Y-109504819D01*
X130388094Y-109504819D02*
X130007142Y-109504819D01*
X130007142Y-109504819D02*
X129911904Y-109552438D01*
X129911904Y-109552438D02*
X129864285Y-109600057D01*
X129864285Y-109600057D02*
X129816666Y-109695295D01*
X129816666Y-109695295D02*
X129816666Y-109838152D01*
X129816666Y-109838152D02*
X129864285Y-109933390D01*
X129864285Y-109933390D02*
X129911904Y-109981009D01*
X129911904Y-109981009D02*
X130007142Y-110028628D01*
X130007142Y-110028628D02*
X130388094Y-110028628D01*
X144211904Y-82081009D02*
X144545237Y-82081009D01*
X144545237Y-82604819D02*
X144545237Y-81604819D01*
X144545237Y-81604819D02*
X144069047Y-81604819D01*
X143259523Y-82604819D02*
X143259523Y-82081009D01*
X143259523Y-82081009D02*
X143307142Y-81985771D01*
X143307142Y-81985771D02*
X143402380Y-81938152D01*
X143402380Y-81938152D02*
X143592856Y-81938152D01*
X143592856Y-81938152D02*
X143688094Y-81985771D01*
X143259523Y-82557200D02*
X143354761Y-82604819D01*
X143354761Y-82604819D02*
X143592856Y-82604819D01*
X143592856Y-82604819D02*
X143688094Y-82557200D01*
X143688094Y-82557200D02*
X143735713Y-82461961D01*
X143735713Y-82461961D02*
X143735713Y-82366723D01*
X143735713Y-82366723D02*
X143688094Y-82271485D01*
X143688094Y-82271485D02*
X143592856Y-82223866D01*
X143592856Y-82223866D02*
X143354761Y-82223866D01*
X143354761Y-82223866D02*
X143259523Y-82176247D01*
X142783332Y-81938152D02*
X142783332Y-82604819D01*
X142783332Y-82033390D02*
X142735713Y-81985771D01*
X142735713Y-81985771D02*
X142640475Y-81938152D01*
X142640475Y-81938152D02*
X142497618Y-81938152D01*
X142497618Y-81938152D02*
X142402380Y-81985771D01*
X142402380Y-81985771D02*
X142354761Y-82081009D01*
X142354761Y-82081009D02*
X142354761Y-82604819D01*
X180990476Y-83654819D02*
X180990476Y-82654819D01*
X180990476Y-83131009D02*
X180419048Y-83131009D01*
X180419048Y-83654819D02*
X180419048Y-82654819D01*
X179561905Y-83607200D02*
X179657143Y-83654819D01*
X179657143Y-83654819D02*
X179847619Y-83654819D01*
X179847619Y-83654819D02*
X179942857Y-83607200D01*
X179942857Y-83607200D02*
X179990476Y-83511961D01*
X179990476Y-83511961D02*
X179990476Y-83131009D01*
X179990476Y-83131009D02*
X179942857Y-83035771D01*
X179942857Y-83035771D02*
X179847619Y-82988152D01*
X179847619Y-82988152D02*
X179657143Y-82988152D01*
X179657143Y-82988152D02*
X179561905Y-83035771D01*
X179561905Y-83035771D02*
X179514286Y-83131009D01*
X179514286Y-83131009D02*
X179514286Y-83226247D01*
X179514286Y-83226247D02*
X179990476Y-83321485D01*
X178657143Y-83654819D02*
X178657143Y-83131009D01*
X178657143Y-83131009D02*
X178704762Y-83035771D01*
X178704762Y-83035771D02*
X178800000Y-82988152D01*
X178800000Y-82988152D02*
X178990476Y-82988152D01*
X178990476Y-82988152D02*
X179085714Y-83035771D01*
X178657143Y-83607200D02*
X178752381Y-83654819D01*
X178752381Y-83654819D02*
X178990476Y-83654819D01*
X178990476Y-83654819D02*
X179085714Y-83607200D01*
X179085714Y-83607200D02*
X179133333Y-83511961D01*
X179133333Y-83511961D02*
X179133333Y-83416723D01*
X179133333Y-83416723D02*
X179085714Y-83321485D01*
X179085714Y-83321485D02*
X178990476Y-83273866D01*
X178990476Y-83273866D02*
X178752381Y-83273866D01*
X178752381Y-83273866D02*
X178657143Y-83226247D01*
X178323809Y-82988152D02*
X177942857Y-82988152D01*
X178180952Y-82654819D02*
X178180952Y-83511961D01*
X178180952Y-83511961D02*
X178133333Y-83607200D01*
X178133333Y-83607200D02*
X178038095Y-83654819D01*
X178038095Y-83654819D02*
X177942857Y-83654819D01*
X177228571Y-83607200D02*
X177323809Y-83654819D01*
X177323809Y-83654819D02*
X177514285Y-83654819D01*
X177514285Y-83654819D02*
X177609523Y-83607200D01*
X177609523Y-83607200D02*
X177657142Y-83511961D01*
X177657142Y-83511961D02*
X177657142Y-83131009D01*
X177657142Y-83131009D02*
X177609523Y-83035771D01*
X177609523Y-83035771D02*
X177514285Y-82988152D01*
X177514285Y-82988152D02*
X177323809Y-82988152D01*
X177323809Y-82988152D02*
X177228571Y-83035771D01*
X177228571Y-83035771D02*
X177180952Y-83131009D01*
X177180952Y-83131009D02*
X177180952Y-83226247D01*
X177180952Y-83226247D02*
X177657142Y-83321485D01*
X176752380Y-83654819D02*
X176752380Y-82988152D01*
X176752380Y-83178628D02*
X176704761Y-83083390D01*
X176704761Y-83083390D02*
X176657142Y-83035771D01*
X176657142Y-83035771D02*
X176561904Y-82988152D01*
X176561904Y-82988152D02*
X176466666Y-82988152D01*
X132038094Y-68704819D02*
X131419047Y-68704819D01*
X131419047Y-68704819D02*
X131752380Y-69085771D01*
X131752380Y-69085771D02*
X131609523Y-69085771D01*
X131609523Y-69085771D02*
X131514285Y-69133390D01*
X131514285Y-69133390D02*
X131466666Y-69181009D01*
X131466666Y-69181009D02*
X131419047Y-69276247D01*
X131419047Y-69276247D02*
X131419047Y-69514342D01*
X131419047Y-69514342D02*
X131466666Y-69609580D01*
X131466666Y-69609580D02*
X131514285Y-69657200D01*
X131514285Y-69657200D02*
X131609523Y-69704819D01*
X131609523Y-69704819D02*
X131895237Y-69704819D01*
X131895237Y-69704819D02*
X131990475Y-69657200D01*
X131990475Y-69657200D02*
X132038094Y-69609580D01*
X131133332Y-68704819D02*
X130799999Y-69704819D01*
X130799999Y-69704819D02*
X130466666Y-68704819D01*
X130228570Y-68704819D02*
X129609523Y-68704819D01*
X129609523Y-68704819D02*
X129942856Y-69085771D01*
X129942856Y-69085771D02*
X129799999Y-69085771D01*
X129799999Y-69085771D02*
X129704761Y-69133390D01*
X129704761Y-69133390D02*
X129657142Y-69181009D01*
X129657142Y-69181009D02*
X129609523Y-69276247D01*
X129609523Y-69276247D02*
X129609523Y-69514342D01*
X129609523Y-69514342D02*
X129657142Y-69609580D01*
X129657142Y-69609580D02*
X129704761Y-69657200D01*
X129704761Y-69657200D02*
X129799999Y-69704819D01*
X129799999Y-69704819D02*
X130085713Y-69704819D01*
X130085713Y-69704819D02*
X130180951Y-69657200D01*
X130180951Y-69657200D02*
X130228570Y-69609580D01*
X142354819Y-70454762D02*
X141354819Y-70454762D01*
X141354819Y-70454762D02*
X141354819Y-70835714D01*
X141354819Y-70835714D02*
X141402438Y-70930952D01*
X141402438Y-70930952D02*
X141450057Y-70978571D01*
X141450057Y-70978571D02*
X141545295Y-71026190D01*
X141545295Y-71026190D02*
X141688152Y-71026190D01*
X141688152Y-71026190D02*
X141783390Y-70978571D01*
X141783390Y-70978571D02*
X141831009Y-70930952D01*
X141831009Y-70930952D02*
X141878628Y-70835714D01*
X141878628Y-70835714D02*
X141878628Y-70454762D01*
X142354819Y-72026190D02*
X141878628Y-71692857D01*
X142354819Y-71454762D02*
X141354819Y-71454762D01*
X141354819Y-71454762D02*
X141354819Y-71835714D01*
X141354819Y-71835714D02*
X141402438Y-71930952D01*
X141402438Y-71930952D02*
X141450057Y-71978571D01*
X141450057Y-71978571D02*
X141545295Y-72026190D01*
X141545295Y-72026190D02*
X141688152Y-72026190D01*
X141688152Y-72026190D02*
X141783390Y-71978571D01*
X141783390Y-71978571D02*
X141831009Y-71930952D01*
X141831009Y-71930952D02*
X141878628Y-71835714D01*
X141878628Y-71835714D02*
X141878628Y-71454762D01*
X141354819Y-72645238D02*
X141354819Y-72835714D01*
X141354819Y-72835714D02*
X141402438Y-72930952D01*
X141402438Y-72930952D02*
X141497676Y-73026190D01*
X141497676Y-73026190D02*
X141688152Y-73073809D01*
X141688152Y-73073809D02*
X142021485Y-73073809D01*
X142021485Y-73073809D02*
X142211961Y-73026190D01*
X142211961Y-73026190D02*
X142307200Y-72930952D01*
X142307200Y-72930952D02*
X142354819Y-72835714D01*
X142354819Y-72835714D02*
X142354819Y-72645238D01*
X142354819Y-72645238D02*
X142307200Y-72550000D01*
X142307200Y-72550000D02*
X142211961Y-72454762D01*
X142211961Y-72454762D02*
X142021485Y-72407143D01*
X142021485Y-72407143D02*
X141688152Y-72407143D01*
X141688152Y-72407143D02*
X141497676Y-72454762D01*
X141497676Y-72454762D02*
X141402438Y-72550000D01*
X141402438Y-72550000D02*
X141354819Y-72645238D01*
X141402438Y-74026190D02*
X141354819Y-73930952D01*
X141354819Y-73930952D02*
X141354819Y-73788095D01*
X141354819Y-73788095D02*
X141402438Y-73645238D01*
X141402438Y-73645238D02*
X141497676Y-73550000D01*
X141497676Y-73550000D02*
X141592914Y-73502381D01*
X141592914Y-73502381D02*
X141783390Y-73454762D01*
X141783390Y-73454762D02*
X141926247Y-73454762D01*
X141926247Y-73454762D02*
X142116723Y-73502381D01*
X142116723Y-73502381D02*
X142211961Y-73550000D01*
X142211961Y-73550000D02*
X142307200Y-73645238D01*
X142307200Y-73645238D02*
X142354819Y-73788095D01*
X142354819Y-73788095D02*
X142354819Y-73883333D01*
X142354819Y-73883333D02*
X142307200Y-74026190D01*
X142307200Y-74026190D02*
X142259580Y-74073809D01*
X142259580Y-74073809D02*
X141926247Y-74073809D01*
X141926247Y-74073809D02*
X141926247Y-73883333D01*
X142450057Y-74264286D02*
X142450057Y-75026190D01*
X142307200Y-75216667D02*
X142354819Y-75359524D01*
X142354819Y-75359524D02*
X142354819Y-75597619D01*
X142354819Y-75597619D02*
X142307200Y-75692857D01*
X142307200Y-75692857D02*
X142259580Y-75740476D01*
X142259580Y-75740476D02*
X142164342Y-75788095D01*
X142164342Y-75788095D02*
X142069104Y-75788095D01*
X142069104Y-75788095D02*
X141973866Y-75740476D01*
X141973866Y-75740476D02*
X141926247Y-75692857D01*
X141926247Y-75692857D02*
X141878628Y-75597619D01*
X141878628Y-75597619D02*
X141831009Y-75407143D01*
X141831009Y-75407143D02*
X141783390Y-75311905D01*
X141783390Y-75311905D02*
X141735771Y-75264286D01*
X141735771Y-75264286D02*
X141640533Y-75216667D01*
X141640533Y-75216667D02*
X141545295Y-75216667D01*
X141545295Y-75216667D02*
X141450057Y-75264286D01*
X141450057Y-75264286D02*
X141402438Y-75311905D01*
X141402438Y-75311905D02*
X141354819Y-75407143D01*
X141354819Y-75407143D02*
X141354819Y-75645238D01*
X141354819Y-75645238D02*
X141402438Y-75788095D01*
X141354819Y-76073810D02*
X141354819Y-76645238D01*
X142354819Y-76359524D02*
X141354819Y-76359524D01*
X142354819Y-76978572D02*
X141354819Y-76978572D01*
X141354819Y-76978572D02*
X142069104Y-77311905D01*
X142069104Y-77311905D02*
X141354819Y-77645238D01*
X141354819Y-77645238D02*
X142354819Y-77645238D01*
X108892319Y-128266666D02*
X109606604Y-128266666D01*
X109606604Y-128266666D02*
X109749461Y-128219047D01*
X109749461Y-128219047D02*
X109844700Y-128123809D01*
X109844700Y-128123809D02*
X109892319Y-127980952D01*
X109892319Y-127980952D02*
X109892319Y-127885714D01*
X108892319Y-129219047D02*
X108892319Y-128742857D01*
X108892319Y-128742857D02*
X109368509Y-128695238D01*
X109368509Y-128695238D02*
X109320890Y-128742857D01*
X109320890Y-128742857D02*
X109273271Y-128838095D01*
X109273271Y-128838095D02*
X109273271Y-129076190D01*
X109273271Y-129076190D02*
X109320890Y-129171428D01*
X109320890Y-129171428D02*
X109368509Y-129219047D01*
X109368509Y-129219047D02*
X109463747Y-129266666D01*
X109463747Y-129266666D02*
X109701842Y-129266666D01*
X109701842Y-129266666D02*
X109797080Y-129219047D01*
X109797080Y-129219047D02*
X109844700Y-129171428D01*
X109844700Y-129171428D02*
X109892319Y-129076190D01*
X109892319Y-129076190D02*
X109892319Y-128838095D01*
X109892319Y-128838095D02*
X109844700Y-128742857D01*
X109844700Y-128742857D02*
X109797080Y-128695238D01*
X139840476Y-68704819D02*
X140316666Y-68704819D01*
X140316666Y-68704819D02*
X140364285Y-69181009D01*
X140364285Y-69181009D02*
X140316666Y-69133390D01*
X140316666Y-69133390D02*
X140221428Y-69085771D01*
X140221428Y-69085771D02*
X139983333Y-69085771D01*
X139983333Y-69085771D02*
X139888095Y-69133390D01*
X139888095Y-69133390D02*
X139840476Y-69181009D01*
X139840476Y-69181009D02*
X139792857Y-69276247D01*
X139792857Y-69276247D02*
X139792857Y-69514342D01*
X139792857Y-69514342D02*
X139840476Y-69609580D01*
X139840476Y-69609580D02*
X139888095Y-69657200D01*
X139888095Y-69657200D02*
X139983333Y-69704819D01*
X139983333Y-69704819D02*
X140221428Y-69704819D01*
X140221428Y-69704819D02*
X140316666Y-69657200D01*
X140316666Y-69657200D02*
X140364285Y-69609580D01*
X139507142Y-68704819D02*
X139173809Y-69704819D01*
X139173809Y-69704819D02*
X138840476Y-68704819D01*
X188164285Y-119202438D02*
X188259523Y-119154819D01*
X188259523Y-119154819D02*
X188402380Y-119154819D01*
X188402380Y-119154819D02*
X188545237Y-119202438D01*
X188545237Y-119202438D02*
X188640475Y-119297676D01*
X188640475Y-119297676D02*
X188688094Y-119392914D01*
X188688094Y-119392914D02*
X188735713Y-119583390D01*
X188735713Y-119583390D02*
X188735713Y-119726247D01*
X188735713Y-119726247D02*
X188688094Y-119916723D01*
X188688094Y-119916723D02*
X188640475Y-120011961D01*
X188640475Y-120011961D02*
X188545237Y-120107200D01*
X188545237Y-120107200D02*
X188402380Y-120154819D01*
X188402380Y-120154819D02*
X188307142Y-120154819D01*
X188307142Y-120154819D02*
X188164285Y-120107200D01*
X188164285Y-120107200D02*
X188116666Y-120059580D01*
X188116666Y-120059580D02*
X188116666Y-119726247D01*
X188116666Y-119726247D02*
X188307142Y-119726247D01*
X187735713Y-119250057D02*
X187688094Y-119202438D01*
X187688094Y-119202438D02*
X187592856Y-119154819D01*
X187592856Y-119154819D02*
X187354761Y-119154819D01*
X187354761Y-119154819D02*
X187259523Y-119202438D01*
X187259523Y-119202438D02*
X187211904Y-119250057D01*
X187211904Y-119250057D02*
X187164285Y-119345295D01*
X187164285Y-119345295D02*
X187164285Y-119440533D01*
X187164285Y-119440533D02*
X187211904Y-119583390D01*
X187211904Y-119583390D02*
X187783332Y-120154819D01*
X187783332Y-120154819D02*
X187164285Y-120154819D01*
D12*
%TO.C,C9*%
X110192164Y-99240000D02*
X110407836Y-99240000D01*
X110192164Y-99960000D02*
X110407836Y-99960000D01*
%TO.C,C88*%
X195788748Y-74440000D02*
X196311252Y-74440000D01*
X195788748Y-75910000D02*
X196311252Y-75910000D01*
%TO.C,C43*%
X134392164Y-68240000D02*
X134607836Y-68240000D01*
X134392164Y-68960000D02*
X134607836Y-68960000D01*
%TO.C,C103*%
X192886252Y-62165000D02*
X192363748Y-62165000D01*
X192886252Y-63635000D02*
X192363748Y-63635000D01*
%TO.C,C19*%
X178756250Y-111303750D02*
X178756250Y-112091250D01*
X179150000Y-111697500D02*
X178362500Y-111697500D01*
X179390000Y-108790000D02*
X179390000Y-107504437D01*
X179390000Y-110910000D02*
X179390000Y-112195563D01*
X180454437Y-106440000D02*
X179390000Y-107504437D01*
X180454437Y-113260000D02*
X179390000Y-112195563D01*
X186210000Y-106440000D02*
X180454437Y-106440000D01*
X186210000Y-108790000D02*
X186210000Y-106440000D01*
X186210000Y-110910000D02*
X186210000Y-113260000D01*
X186210000Y-113260000D02*
X180454437Y-113260000D01*
%TO.C,C94*%
X183490000Y-84007836D02*
X183490000Y-83792164D01*
X184210000Y-84007836D02*
X184210000Y-83792164D01*
%TO.C,R76*%
X117365000Y-97127064D02*
X117365000Y-96672936D01*
X118835000Y-97127064D02*
X118835000Y-96672936D01*
%TO.C,R7*%
X119187258Y-120577500D02*
X118712742Y-120577500D01*
X119187258Y-121622500D02*
X118712742Y-121622500D01*
%TO.C,Q6*%
X141740000Y-120650000D02*
X141740000Y-121300000D01*
X141740000Y-121950000D02*
X141740000Y-121300000D01*
X144860000Y-120650000D02*
X144860000Y-121300000D01*
X144860000Y-121950000D02*
X144860000Y-121300000D01*
X145140000Y-122702500D02*
X144810000Y-122462500D01*
X145140000Y-122222500D01*
X145140000Y-122702500D01*
G36*
X145140000Y-122702500D02*
G01*
X144810000Y-122462500D01*
X145140000Y-122222500D01*
X145140000Y-122702500D01*
G37*
%TO.C,SW3*%
X195480000Y-144300000D02*
X195480000Y-142600000D01*
X195480000Y-145800000D02*
X195480000Y-145600000D01*
X196530000Y-147650000D02*
X197320000Y-147650000D01*
X197320000Y-140750000D02*
X196530000Y-140750000D01*
X198330000Y-144100000D02*
X199620000Y-144100000D01*
X198330000Y-147050000D02*
X198330000Y-141350000D01*
X199620000Y-142800000D02*
X198330000Y-142800000D01*
X199830000Y-143000000D02*
X199620000Y-142800000D01*
X199830000Y-143900000D02*
X199620000Y-144100000D01*
X199830000Y-143900000D02*
X199830000Y-143000000D01*
%TO.C,C84*%
X113659420Y-66340000D02*
X113940580Y-66340000D01*
X113659420Y-67360000D02*
X113940580Y-67360000D01*
%TO.C,C14*%
X171821693Y-117280810D02*
X171669190Y-117128307D01*
X172330810Y-116771693D02*
X172178307Y-116619190D01*
%TO.C,R69*%
X123696359Y-88520000D02*
X124003641Y-88520000D01*
X123696359Y-89280000D02*
X124003641Y-89280000D01*
%TO.C,TP6*%
X184355000Y-119685000D02*
G75*
G02*
X182955000Y-119685000I-700000J0D01*
G01*
X182955000Y-119685000D02*
G75*
G02*
X184355000Y-119685000I700000J0D01*
G01*
%TO.C,J17*%
D13*
X144050000Y-128225000D02*
X129050000Y-128225000D01*
X129050000Y-142725000D01*
X144050000Y-142725000D01*
X144050000Y-128225000D01*
D12*
%TO.C,C17*%
X171590000Y-106265000D02*
X171590000Y-108135000D01*
X171590000Y-108135000D02*
X175500000Y-108135000D01*
X175500000Y-106265000D02*
X171590000Y-106265000D01*
%TO.C,U3*%
X115415000Y-81940000D02*
X117725000Y-81940000D01*
X115415000Y-82215000D02*
X115415000Y-81940000D01*
X115415000Y-91585000D02*
X115415000Y-91860000D01*
X115415000Y-91860000D02*
X117725000Y-91860000D01*
X120035000Y-81940000D02*
X117725000Y-81940000D01*
X120035000Y-82215000D02*
X120035000Y-81940000D01*
X120035000Y-91585000D02*
X120035000Y-91860000D01*
X120035000Y-91860000D02*
X117725000Y-91860000D01*
X115065000Y-91915000D02*
X114585000Y-91915000D01*
X114825000Y-91585000D01*
X115065000Y-91915000D01*
G36*
X115065000Y-91915000D02*
G01*
X114585000Y-91915000D01*
X114825000Y-91585000D01*
X115065000Y-91915000D01*
G37*
%TO.C,C12*%
X162819190Y-118171693D02*
X162971693Y-118019190D01*
X163328307Y-118680810D02*
X163480810Y-118528307D01*
%TO.C,L4*%
X115500000Y-69200000D02*
X115500000Y-67700000D01*
X115500000Y-73000000D02*
X115500000Y-74500000D01*
X115500000Y-74500000D02*
X122900000Y-74500000D01*
X122900000Y-67700000D02*
X115500000Y-67700000D01*
X122900000Y-69200000D02*
X122900000Y-67700000D01*
X122900000Y-73000000D02*
X122900000Y-74500000D01*
%TO.C,SW2*%
X195450000Y-133300000D02*
X195450000Y-131600000D01*
X195450000Y-134800000D02*
X195450000Y-134600000D01*
X196500000Y-136650000D02*
X197290000Y-136650000D01*
X197290000Y-129750000D02*
X196500000Y-129750000D01*
X198300000Y-133100000D02*
X199590000Y-133100000D01*
X198300000Y-136050000D02*
X198300000Y-130350000D01*
X199590000Y-131800000D02*
X198300000Y-131800000D01*
X199800000Y-132000000D02*
X199590000Y-131800000D01*
X199800000Y-132900000D02*
X199590000Y-133100000D01*
X199800000Y-132900000D02*
X199800000Y-132000000D01*
%TO.C,R38*%
X104190000Y-88027064D02*
X104190000Y-86572936D01*
X106010000Y-88027064D02*
X106010000Y-86572936D01*
%TO.C,SW5*%
X127670000Y-118800000D02*
X127670000Y-118770000D01*
X127670000Y-120700000D02*
X127670000Y-123300000D01*
X127670000Y-125230000D02*
X127670000Y-125200000D01*
X134130000Y-118770000D02*
X127670000Y-118770000D01*
X134130000Y-118800000D02*
X134130000Y-118770000D01*
X134130000Y-120700000D02*
X134130000Y-123300000D01*
X134130000Y-125200000D02*
X134130000Y-125230000D01*
X134130000Y-125230000D02*
X127670000Y-125230000D01*
D13*
%TO.C,D21*%
X156150000Y-95800000D02*
X155250000Y-95800000D01*
X155250000Y-94900000D01*
X156150000Y-95800000D01*
G36*
X156150000Y-95800000D02*
G01*
X155250000Y-95800000D01*
X155250000Y-94900000D01*
X156150000Y-95800000D01*
G37*
D12*
%TO.C,C28*%
X128490580Y-108940000D02*
X128209420Y-108940000D01*
X128490580Y-109960000D02*
X128209420Y-109960000D01*
%TO.C,C78*%
X192911252Y-74765000D02*
X192388748Y-74765000D01*
X192911252Y-76235000D02*
X192388748Y-76235000D01*
%TO.C,C36*%
X137782836Y-79365000D02*
X137567164Y-79365000D01*
X137782836Y-80085000D02*
X137567164Y-80085000D01*
%TO.C,C38*%
X113040000Y-90892164D02*
X113040000Y-91107836D01*
X113760000Y-90892164D02*
X113760000Y-91107836D01*
%TO.C,C1*%
X142461252Y-111715000D02*
X141938748Y-111715000D01*
X142461252Y-113185000D02*
X141938748Y-113185000D01*
%TO.C,C10*%
X110192164Y-102690000D02*
X110407836Y-102690000D01*
X110192164Y-103410000D02*
X110407836Y-103410000D01*
%TO.C,R3*%
X139237258Y-111927500D02*
X138762742Y-111927500D01*
X139237258Y-112972500D02*
X138762742Y-112972500D01*
%TO.C,LS2*%
X145500000Y-95300000D02*
X154500000Y-95300000D01*
X145500000Y-97300000D02*
X154500000Y-97300000D01*
X145500000Y-108300000D02*
X154500000Y-108300000D01*
X145500000Y-110300000D02*
X154500000Y-110300000D01*
X145500000Y-108300000D02*
G75*
G02*
X145500000Y-97300000I0J5500000D01*
G01*
X145500000Y-110300000D02*
G75*
G02*
X145500000Y-95300000I0J7500000D01*
G01*
X154500000Y-95300000D02*
G75*
G02*
X154500000Y-110300000I0J-7500000D01*
G01*
X154500000Y-97300000D02*
G75*
G02*
X154500000Y-108300000I0J-5500000D01*
G01*
%TO.C,R49*%
X102946359Y-103920000D02*
X103253641Y-103920000D01*
X102946359Y-104680000D02*
X103253641Y-104680000D01*
%TO.C,D20*%
X158890000Y-88050000D02*
X158890000Y-89750000D01*
X161550000Y-88050000D02*
X158890000Y-88050000D01*
X161550000Y-89750000D02*
X158890000Y-89750000D01*
D13*
%TO.C,D19*%
X121550000Y-77550000D02*
X122950000Y-77550000D01*
X122950000Y-75750000D02*
X121550000Y-75750000D01*
X122950000Y-77550000D02*
X122950000Y-75750000D01*
D12*
%TO.C,SW7*%
X169870000Y-95770000D02*
X169870000Y-102230000D01*
X169900000Y-95770000D02*
X169870000Y-95770000D01*
X169900000Y-102230000D02*
X169870000Y-102230000D01*
X171800000Y-95770000D02*
X174400000Y-95770000D01*
X171800000Y-102230000D02*
X174400000Y-102230000D01*
X176300000Y-95770000D02*
X176330000Y-95770000D01*
X176330000Y-95770000D02*
X176330000Y-102230000D01*
X176330000Y-102230000D02*
X176300000Y-102230000D01*
D11*
%TO.C,J14*%
X187925000Y-102100000D02*
X187925000Y-107000000D01*
X187925000Y-107000000D02*
X189175000Y-107000000D01*
X189675000Y-101000000D02*
X193475000Y-101000000D01*
X191375000Y-107000000D02*
X196175000Y-107000000D01*
X195675000Y-101000000D02*
X197175000Y-101000000D01*
X198375000Y-107000000D02*
X199975000Y-107000000D01*
X199975000Y-101000000D02*
X199375000Y-101000000D01*
D12*
%TO.C,U2*%
X130500000Y-113365000D02*
X132450000Y-113365000D01*
X130500000Y-118485000D02*
X132450000Y-118485000D01*
X134400000Y-113365000D02*
X132450000Y-113365000D01*
X134400000Y-118485000D02*
X132450000Y-118485000D01*
X135150000Y-113460000D02*
X134910000Y-113130000D01*
X135390000Y-113130000D01*
X135150000Y-113460000D01*
G36*
X135150000Y-113460000D02*
G01*
X134910000Y-113130000D01*
X135390000Y-113130000D01*
X135150000Y-113460000D01*
G37*
%TO.C,C29*%
X119090580Y-122090000D02*
X118809420Y-122090000D01*
X119090580Y-123110000D02*
X118809420Y-123110000D01*
%TO.C,U8*%
X119250000Y-129640000D02*
X120050000Y-129640000D01*
X119250000Y-132760000D02*
X120050000Y-132760000D01*
X120850000Y-132760000D02*
X120050000Y-132760000D01*
X121850000Y-129640000D02*
X120050000Y-129640000D01*
%TO.C,R73*%
X111246359Y-127070000D02*
X111553641Y-127070000D01*
X111246359Y-127830000D02*
X111553641Y-127830000D01*
%TO.C,LS1*%
X149715000Y-115110000D02*
X149715000Y-110590000D01*
X149915000Y-110590000D02*
X149715000Y-110590000D01*
X149915000Y-115110000D02*
X149715000Y-115110000D01*
X154035000Y-110590000D02*
X154235000Y-110590000D01*
X154035000Y-115110000D02*
X154235000Y-115110000D01*
X154235000Y-115110000D02*
X154235000Y-110590000D01*
%TO.C,C69*%
X195740000Y-52161252D02*
X195740000Y-51638748D01*
X197210000Y-52161252D02*
X197210000Y-51638748D01*
%TO.C,C63*%
X109590000Y-89940580D02*
X109590000Y-89659420D01*
X110610000Y-89940580D02*
X110610000Y-89659420D01*
%TO.C,C67*%
X145607836Y-117590000D02*
X145392164Y-117590000D01*
X145607836Y-118310000D02*
X145392164Y-118310000D01*
%TO.C,C80*%
X118911253Y-65765000D02*
X118388747Y-65765000D01*
X118911253Y-67235000D02*
X118388747Y-67235000D01*
%TO.C,J13*%
X99850000Y-67150000D02*
X99850000Y-76550000D01*
X99850000Y-67150000D02*
X101750000Y-67150000D01*
X99850000Y-76550000D02*
X101750000Y-76550000D01*
X103650000Y-67150000D02*
X105650000Y-67150000D01*
X103650000Y-76550000D02*
X105650000Y-76550000D01*
%TO.C,R28*%
X119187258Y-119027500D02*
X118712742Y-119027500D01*
X119187258Y-120072500D02*
X118712742Y-120072500D01*
%TO.C,C39*%
X109390000Y-74840000D02*
X109390000Y-80595563D01*
X109390000Y-80595563D02*
X110454437Y-81660000D01*
X111740000Y-74840000D02*
X109390000Y-74840000D01*
X111740000Y-81660000D02*
X110454437Y-81660000D01*
X113860000Y-74840000D02*
X116210000Y-74840000D01*
X113860000Y-81660000D02*
X115145563Y-81660000D01*
X114253750Y-82293750D02*
X115041250Y-82293750D01*
X114647500Y-81900000D02*
X114647500Y-82687500D01*
X116210000Y-74840000D02*
X116210000Y-80595563D01*
X116210000Y-80595563D02*
X115145563Y-81660000D01*
%TO.C,C31*%
X128490580Y-110440000D02*
X128209420Y-110440000D01*
X128490580Y-111460000D02*
X128209420Y-111460000D01*
%TO.C,U10*%
X164208903Y-117700000D02*
X164544778Y-118035876D01*
X164544778Y-117364124D02*
X164208903Y-117700000D01*
X167564124Y-114344778D02*
X167900000Y-114008903D01*
X167900000Y-114008903D02*
X168235876Y-114344778D01*
X167900000Y-121391097D02*
X167564124Y-121055222D01*
X168235876Y-121055222D02*
X167900000Y-121391097D01*
X171378965Y-117487868D02*
X171255222Y-117364124D01*
X171421392Y-117869706D02*
X171255222Y-118035876D01*
X171994148Y-117636360D02*
X171591097Y-117700000D01*
X171654737Y-117296949D01*
X171994148Y-117636360D01*
G36*
X171994148Y-117636360D02*
G01*
X171591097Y-117700000D01*
X171654737Y-117296949D01*
X171994148Y-117636360D01*
G37*
%TO.C,FB1*%
X172954478Y-114924273D02*
X172724273Y-115154478D01*
X173675727Y-115645522D02*
X173445522Y-115875727D01*
%TO.C,C72*%
X195763748Y-60190000D02*
X196286252Y-60190000D01*
X195763748Y-61660000D02*
X196286252Y-61660000D01*
%TO.C,U19*%
X184840000Y-66690000D02*
X184840000Y-67415000D01*
X184840000Y-71910000D02*
X184840000Y-71185000D01*
X185565000Y-66690000D02*
X184840000Y-66690000D01*
X185565000Y-71910000D02*
X184840000Y-71910000D01*
X189335000Y-66690000D02*
X190060000Y-66690000D01*
X189820000Y-71910000D02*
X189335000Y-71910000D01*
X190060000Y-66690000D02*
X190060000Y-67415000D01*
X190060000Y-71610000D02*
X190060000Y-71185000D01*
X190390000Y-72150000D02*
X190060000Y-71910000D01*
X190390000Y-71670000D01*
X190390000Y-72150000D01*
G36*
X190390000Y-72150000D02*
G01*
X190060000Y-71910000D01*
X190390000Y-71670000D01*
X190390000Y-72150000D01*
G37*
%TO.C,C20*%
X178050000Y-119235000D02*
X181960000Y-119235000D01*
X181960000Y-117365000D02*
X178050000Y-117365000D01*
X181960000Y-119235000D02*
X181960000Y-117365000D01*
%TO.C,C59*%
X168492164Y-58040000D02*
X168707836Y-58040000D01*
X168492164Y-58760000D02*
X168707836Y-58760000D01*
%TO.C,C86*%
X189690000Y-61140581D02*
X189690000Y-60859419D01*
X190710000Y-61140581D02*
X190710000Y-60859419D01*
%TO.C,C23*%
X178050000Y-117085000D02*
X181960000Y-117085000D01*
X181960000Y-115215000D02*
X178050000Y-115215000D01*
X181960000Y-117085000D02*
X181960000Y-115215000D01*
%TO.C,C56*%
X118590000Y-140659420D02*
X118590000Y-140940580D01*
X119610000Y-140659420D02*
X119610000Y-140940580D01*
%TO.C,C22*%
X177807836Y-113040000D02*
X177592164Y-113040000D01*
X177807836Y-113760000D02*
X177592164Y-113760000D01*
%TO.C,C76*%
X189690000Y-51609420D02*
X189690000Y-51890580D01*
X190710000Y-51609420D02*
X190710000Y-51890580D01*
%TO.C,R35*%
X154646359Y-84145000D02*
X154953641Y-84145000D01*
X154646359Y-84905000D02*
X154953641Y-84905000D01*
%TO.C,R88*%
X196377064Y-81415000D02*
X194922936Y-81415000D01*
X196377064Y-83235000D02*
X194922936Y-83235000D01*
%TO.C,D3*%
X187120000Y-146260000D02*
X187120000Y-147060000D01*
X187120000Y-147860000D02*
X187120000Y-147060000D01*
X188050000Y-147860000D02*
X187120000Y-147860000D01*
X189350000Y-147860000D02*
X190280000Y-147860000D01*
X190280000Y-146400000D02*
X190280000Y-147860000D01*
X187090000Y-145760000D02*
X186760000Y-146000000D01*
X186760000Y-145520000D01*
X187090000Y-145760000D01*
G36*
X187090000Y-145760000D02*
G01*
X186760000Y-146000000D01*
X186760000Y-145520000D01*
X187090000Y-145760000D01*
G37*
%TO.C,C16*%
X170090000Y-108865000D02*
X170090000Y-110735000D01*
X170090000Y-110735000D02*
X174000000Y-110735000D01*
X174000000Y-108865000D02*
X170090000Y-108865000D01*
%TO.C,R77*%
X117365000Y-100372936D02*
X117365000Y-100827064D01*
X118835000Y-100372936D02*
X118835000Y-100827064D01*
%TO.C,C83*%
X113659420Y-67840000D02*
X113940580Y-67840000D01*
X113659420Y-68860000D02*
X113940580Y-68860000D01*
%TO.C,C15*%
X168290000Y-113142164D02*
X168290000Y-113357836D01*
X169010000Y-113142164D02*
X169010000Y-113357836D01*
%TO.C,C61*%
X122607836Y-82340000D02*
X122392164Y-82340000D01*
X122607836Y-83060000D02*
X122392164Y-83060000D01*
%TO.C,R80*%
X196377064Y-66540000D02*
X194922936Y-66540000D01*
X196377064Y-68360000D02*
X194922936Y-68360000D01*
%TO.C,C24*%
X165465000Y-105790000D02*
X165465000Y-109700000D01*
X167335000Y-105790000D02*
X165465000Y-105790000D01*
X167335000Y-109700000D02*
X167335000Y-105790000D01*
%TO.C,R15*%
X165040000Y-80427064D02*
X165040000Y-78972936D01*
X166860000Y-80427064D02*
X166860000Y-78972936D01*
%TO.C,U27*%
X122040000Y-64200000D02*
X122040000Y-66000000D01*
X125260000Y-64200000D02*
X125260000Y-65000000D01*
X125260000Y-65800000D02*
X125260000Y-65000000D01*
X125540000Y-66540000D02*
X125210000Y-66300000D01*
X125540000Y-66060000D01*
X125540000Y-66540000D01*
G36*
X125540000Y-66540000D02*
G01*
X125210000Y-66300000D01*
X125540000Y-66060000D01*
X125540000Y-66540000D01*
G37*
%TO.C,C93*%
X195788748Y-76415000D02*
X196311252Y-76415000D01*
X195788748Y-77885000D02*
X196311252Y-77885000D01*
%TO.C,R74*%
X143646359Y-123320000D02*
X143953641Y-123320000D01*
X143646359Y-124080000D02*
X143953641Y-124080000D01*
%TO.C,R83*%
X196377064Y-53815000D02*
X194922936Y-53815000D01*
X196377064Y-55635000D02*
X194922936Y-55635000D01*
%TO.C,C30*%
X128490580Y-111940000D02*
X128209420Y-111940000D01*
X128490580Y-112960000D02*
X128209420Y-112960000D01*
%TO.C,U12*%
X121345000Y-145700000D02*
X118345000Y-145700000D01*
X118345000Y-148700000D01*
X121345000Y-148700000D01*
X121345000Y-145700000D01*
X120345000Y-147700000D02*
G75*
G02*
X119345000Y-147700000I-500000J0D01*
G01*
X119345000Y-147700000D02*
G75*
G02*
X120345000Y-147700000I500000J0D01*
G01*
D13*
X118145000Y-148200000D02*
X117845000Y-148500000D01*
X117845000Y-147900000D01*
X118145000Y-148200000D01*
G36*
X118145000Y-148200000D02*
G01*
X117845000Y-148500000D01*
X117845000Y-147900000D01*
X118145000Y-148200000D01*
G37*
D12*
%TO.C,D8*%
X145400000Y-72500000D02*
X145400000Y-68600000D01*
X145400000Y-72500000D02*
X148600000Y-72500000D01*
X148600000Y-72500000D02*
X148600000Y-68600000D01*
D11*
%TO.C,U1*%
X180125000Y-138355000D02*
X181525000Y-138355000D01*
X181525000Y-133495000D02*
X181525000Y-133350000D01*
X181525000Y-138355000D02*
X181525000Y-138500000D01*
X185675000Y-133350000D02*
X181525000Y-133350000D01*
X185675000Y-133495000D02*
X185675000Y-133350000D01*
X185675000Y-138355000D02*
X185675000Y-138500000D01*
X185675000Y-138500000D02*
X181525000Y-138500000D01*
D12*
%TO.C,C74*%
X187092164Y-59640000D02*
X187307836Y-59640000D01*
X187092164Y-60360000D02*
X187307836Y-60360000D01*
D13*
%TO.C,D15*%
X151544201Y-95800000D02*
X150644201Y-95800000D01*
X150644201Y-94900000D01*
X151544201Y-95800000D01*
G36*
X151544201Y-95800000D02*
G01*
X150644201Y-95800000D01*
X150644201Y-94900000D01*
X151544201Y-95800000D01*
G37*
D12*
%TO.C,U18*%
X110950000Y-124490000D02*
X109900000Y-124490000D01*
X111200000Y-126810000D02*
X109900000Y-126810000D01*
X111590000Y-124490000D02*
X111310000Y-124490000D01*
X111310000Y-124210000D01*
X111590000Y-124490000D01*
G36*
X111590000Y-124490000D02*
G01*
X111310000Y-124490000D01*
X111310000Y-124210000D01*
X111590000Y-124490000D01*
G37*
%TO.C,C77*%
X193765000Y-52161252D02*
X193765000Y-51638748D01*
X195235000Y-52161252D02*
X195235000Y-51638748D01*
%TO.C,U20*%
X184840000Y-79190000D02*
X184840000Y-79915000D01*
X184840000Y-84410000D02*
X184840000Y-83685000D01*
X185565000Y-79190000D02*
X184840000Y-79190000D01*
X185565000Y-84410000D02*
X184840000Y-84410000D01*
X189335000Y-79190000D02*
X190060000Y-79190000D01*
X189820000Y-84410000D02*
X189335000Y-84410000D01*
X190060000Y-79190000D02*
X190060000Y-79915000D01*
X190060000Y-84110000D02*
X190060000Y-83685000D01*
X190390000Y-84650000D02*
X190060000Y-84410000D01*
X190390000Y-84170000D01*
X190390000Y-84650000D01*
G36*
X190390000Y-84650000D02*
G01*
X190060000Y-84410000D01*
X190390000Y-84170000D01*
X190390000Y-84650000D01*
G37*
%TO.C,SW8*%
X169870000Y-125770000D02*
X169870000Y-132230000D01*
X169900000Y-125770000D02*
X169870000Y-125770000D01*
X169900000Y-132230000D02*
X169870000Y-132230000D01*
X171800000Y-125770000D02*
X174400000Y-125770000D01*
X171800000Y-132230000D02*
X174400000Y-132230000D01*
X176300000Y-125770000D02*
X176330000Y-125770000D01*
X176330000Y-125770000D02*
X176330000Y-132230000D01*
X176330000Y-132230000D02*
X176300000Y-132230000D01*
D11*
%TO.C,J16*%
X187925000Y-113100000D02*
X187925000Y-118000000D01*
X187925000Y-118000000D02*
X189175000Y-118000000D01*
X189675000Y-112000000D02*
X193475000Y-112000000D01*
X191375000Y-118000000D02*
X196175000Y-118000000D01*
X195675000Y-112000000D02*
X197175000Y-112000000D01*
X198375000Y-118000000D02*
X199975000Y-118000000D01*
X199975000Y-112000000D02*
X199375000Y-112000000D01*
D12*
%TO.C,J11*%
X100615000Y-140260000D02*
X100615000Y-144140000D01*
X105085000Y-139090000D02*
X102585000Y-139090000D01*
X105085000Y-140140000D02*
X105085000Y-139090000D01*
X105085000Y-144260000D02*
X105085000Y-145310000D01*
X105085000Y-145310000D02*
X102585000Y-145310000D01*
X106075000Y-144260000D02*
X105085000Y-144260000D01*
%TO.C,C98*%
X189690000Y-86540580D02*
X189690000Y-86259420D01*
X190710000Y-86540580D02*
X190710000Y-86259420D01*
%TO.C,U9*%
X116790000Y-133990000D02*
X117465000Y-133990000D01*
X116790000Y-134165000D02*
X116790000Y-133990000D01*
X117090000Y-136710000D02*
X117465000Y-136710000D01*
X120010000Y-133990000D02*
X119335000Y-133990000D01*
X120010000Y-134165000D02*
X120010000Y-133990000D01*
X120010000Y-136535000D02*
X120010000Y-136710000D01*
X120010000Y-136710000D02*
X119335000Y-136710000D01*
X116930000Y-136900000D02*
X116650000Y-136900000D01*
X116790000Y-136710000D01*
X116930000Y-136900000D01*
G36*
X116930000Y-136900000D02*
G01*
X116650000Y-136900000D01*
X116790000Y-136710000D01*
X116930000Y-136900000D01*
G37*
%TO.C,D9*%
X145400000Y-79500000D02*
X145400000Y-75600000D01*
X145400000Y-79500000D02*
X148600000Y-79500000D01*
X148600000Y-79500000D02*
X148600000Y-75600000D01*
%TO.C,C104*%
X195763748Y-64140000D02*
X196286252Y-64140000D01*
X195763748Y-65610000D02*
X196286252Y-65610000D01*
%TO.C,J6*%
X166200000Y-134600000D02*
X171200000Y-134600000D01*
X166200000Y-140200000D02*
X167000000Y-140200000D01*
X166200000Y-143400000D02*
X166200000Y-134600000D01*
X167000000Y-137800000D02*
X166200000Y-137800000D01*
X167000000Y-140200000D02*
X167000000Y-137800000D01*
X171200000Y-134600000D02*
X171200000Y-139000000D01*
X171200000Y-139000000D02*
X171200000Y-143400000D01*
X171200000Y-143400000D02*
X166200000Y-143400000D01*
%TO.C,JP3*%
X166300000Y-127900000D02*
X166300000Y-126500000D01*
X167000000Y-125800000D02*
X167600000Y-125800000D01*
X167600000Y-128600000D02*
X167000000Y-128600000D01*
X168300000Y-126500000D02*
X168300000Y-127900000D01*
X166300000Y-126500000D02*
G75*
G02*
X167000000Y-125800000I699999J1D01*
G01*
X167000000Y-128600000D02*
G75*
G02*
X166300000Y-127900000I0J700000D01*
G01*
X167600000Y-125800000D02*
G75*
G02*
X168300000Y-126500000I1J-699999D01*
G01*
X168300000Y-127900000D02*
G75*
G02*
X167600000Y-128600000I-700000J0D01*
G01*
%TO.C,C89*%
X189690000Y-74340580D02*
X189690000Y-74059420D01*
X190710000Y-74340580D02*
X190710000Y-74059420D01*
%TO.C,R14*%
X110453641Y-98270000D02*
X110146359Y-98270000D01*
X110453641Y-99030000D02*
X110146359Y-99030000D01*
%TO.C,SW1*%
X181350000Y-149000000D02*
X181350000Y-147900000D01*
X183150000Y-147900000D02*
X183150000Y-149000000D01*
X183150000Y-149000000D02*
X181350000Y-149000000D01*
X183250000Y-145550000D02*
X181250000Y-145550000D01*
X184150000Y-147900000D02*
X180350000Y-147900000D01*
%TO.C,U4*%
X147200000Y-123110000D02*
X147200000Y-123860000D01*
X147200000Y-141860000D02*
X147200000Y-148610000D01*
X147200000Y-142670000D02*
X165200000Y-142670000D01*
X148200000Y-123110000D02*
X147200000Y-123110000D01*
X164200000Y-123110000D02*
X165200000Y-123110000D01*
X165200000Y-123110000D02*
X165200000Y-123860000D01*
X165200000Y-141860000D02*
X165200000Y-148610000D01*
X165200000Y-148610000D02*
X147200000Y-148610000D01*
%TO.C,R43*%
X109520000Y-142353641D02*
X109520000Y-142046359D01*
X110280000Y-142353641D02*
X110280000Y-142046359D01*
%TO.C,R87*%
X196377064Y-79165000D02*
X194922936Y-79165000D01*
X196377064Y-80985000D02*
X194922936Y-80985000D01*
%TO.C,C64*%
X103359420Y-114040000D02*
X103640580Y-114040000D01*
X103359420Y-115060000D02*
X103640580Y-115060000D01*
%TO.C,R16*%
X110453641Y-95670000D02*
X110146359Y-95670000D01*
X110453641Y-96430000D02*
X110146359Y-96430000D01*
%TO.C,R30*%
X182746359Y-70020000D02*
X183053641Y-70020000D01*
X182746359Y-70780000D02*
X183053641Y-70780000D01*
%TO.C,C18*%
X178556250Y-104153750D02*
X178556250Y-104941250D01*
X178950000Y-104547500D02*
X178162500Y-104547500D01*
X179190000Y-101640000D02*
X179190000Y-100354437D01*
X179190000Y-103760000D02*
X179190000Y-105045563D01*
X180254437Y-99290000D02*
X179190000Y-100354437D01*
X180254437Y-106110000D02*
X179190000Y-105045563D01*
X186010000Y-99290000D02*
X180254437Y-99290000D01*
X186010000Y-101640000D02*
X186010000Y-99290000D01*
X186010000Y-103760000D02*
X186010000Y-106110000D01*
X186010000Y-106110000D02*
X180254437Y-106110000D01*
%TO.C,L1*%
X119300000Y-113250000D02*
X119300000Y-111750000D01*
X119300000Y-117050000D02*
X119300000Y-118550000D01*
X119300000Y-118550000D02*
X126700000Y-118550000D01*
X126700000Y-111750000D02*
X119300000Y-111750000D01*
X126700000Y-113250000D02*
X126700000Y-111750000D01*
X126700000Y-117050000D02*
X126700000Y-118550000D01*
%TO.C,J7*%
X159640000Y-81990000D02*
X159640000Y-87960000D01*
X159640000Y-87960000D02*
X167260000Y-87960000D01*
X159650000Y-82000000D02*
X159650000Y-82750000D01*
X159650000Y-82750000D02*
X161450000Y-82750000D01*
X160400000Y-84250000D02*
X159650000Y-84250000D01*
X160400000Y-87200000D02*
X160400000Y-84250000D01*
X161450000Y-82000000D02*
X159650000Y-82000000D01*
X161450000Y-82750000D02*
X161450000Y-82000000D01*
X162950000Y-82000000D02*
X162950000Y-82750000D01*
X162950000Y-82750000D02*
X163950000Y-82750000D01*
X163450000Y-87200000D02*
X160400000Y-87200000D01*
X163450000Y-87200000D02*
X166500000Y-87200000D01*
X163950000Y-82000000D02*
X162950000Y-82000000D01*
X163950000Y-82750000D02*
X163950000Y-82000000D01*
X165450000Y-82000000D02*
X165450000Y-82750000D01*
X165450000Y-82750000D02*
X167250000Y-82750000D01*
X166500000Y-84250000D02*
X167250000Y-84250000D01*
X166500000Y-87200000D02*
X166500000Y-84250000D01*
X167250000Y-82000000D02*
X165450000Y-82000000D01*
X167250000Y-82750000D02*
X167250000Y-82000000D01*
X167260000Y-81990000D02*
X159640000Y-81990000D01*
X167260000Y-87960000D02*
X167260000Y-81990000D01*
%TO.C,U5*%
X127490000Y-81065000D02*
X128440000Y-81065000D01*
X127490000Y-82015000D02*
X127490000Y-81065000D01*
X127490000Y-90335000D02*
X127490000Y-91285000D01*
X127490000Y-91285000D02*
X128440000Y-91285000D01*
X137710000Y-81065000D02*
X136760000Y-81065000D01*
X137710000Y-82015000D02*
X137710000Y-81065000D01*
X137710000Y-90335000D02*
X137710000Y-91285000D01*
X137710000Y-91285000D02*
X136760000Y-91285000D01*
X138325000Y-82015000D02*
X137985000Y-81545000D01*
X138665000Y-81545000D01*
X138325000Y-82015000D01*
G36*
X138325000Y-82015000D02*
G01*
X137985000Y-81545000D01*
X138665000Y-81545000D01*
X138325000Y-82015000D01*
G37*
D11*
%TO.C,J3*%
X187925000Y-91100000D02*
X187925000Y-96000000D01*
X187925000Y-96000000D02*
X189175000Y-96000000D01*
X189675000Y-90000000D02*
X193475000Y-90000000D01*
X191375000Y-96000000D02*
X196175000Y-96000000D01*
X195675000Y-90000000D02*
X197175000Y-90000000D01*
X198375000Y-96000000D02*
X199975000Y-96000000D01*
X199975000Y-90000000D02*
X199375000Y-90000000D01*
D12*
%TO.C,C73*%
X184707836Y-59640000D02*
X184492164Y-59640000D01*
X184707836Y-60360000D02*
X184492164Y-60360000D01*
%TO.C,R40*%
X168953641Y-129020000D02*
X168646359Y-129020000D01*
X168953641Y-129780000D02*
X168646359Y-129780000D01*
%TO.C,U16*%
X101940000Y-108150000D02*
X101940000Y-110100000D01*
X101940000Y-112050000D02*
X101940000Y-110100000D01*
X107060000Y-108150000D02*
X107060000Y-110100000D01*
X107060000Y-112050000D02*
X107060000Y-110100000D01*
X102035000Y-107400000D02*
X101705000Y-107640000D01*
X101705000Y-107160000D01*
X102035000Y-107400000D01*
G36*
X102035000Y-107400000D02*
G01*
X101705000Y-107640000D01*
X101705000Y-107160000D01*
X102035000Y-107400000D01*
G37*
%TO.C,C70*%
X183490000Y-71907836D02*
X183490000Y-71692164D01*
X184210000Y-71907836D02*
X184210000Y-71692164D01*
%TO.C,C37*%
X131007836Y-93740000D02*
X130792164Y-93740000D01*
X131007836Y-94460000D02*
X130792164Y-94460000D01*
%TO.C,BT1*%
X112745000Y-117550000D02*
X190745000Y-117550000D01*
X112745000Y-137650000D02*
X112745000Y-117550000D01*
X190745000Y-117550000D02*
X190745000Y-137650000D01*
X190745000Y-137650000D02*
X112745000Y-137650000D01*
%TO.C,R8*%
X190270000Y-134903641D02*
X190270000Y-134596359D01*
X191030000Y-134903641D02*
X191030000Y-134596359D01*
%TO.C,Q3*%
X167110000Y-70400000D02*
X160690000Y-70400000D01*
X167110000Y-70670000D02*
X167110000Y-70400000D01*
X167110000Y-77030000D02*
X167110000Y-77300000D01*
X167110000Y-77300000D02*
X160690000Y-77300000D01*
X168530000Y-70710000D02*
X168290000Y-70380000D01*
X168770000Y-70380000D01*
X168530000Y-70710000D01*
G36*
X168530000Y-70710000D02*
G01*
X168290000Y-70380000D01*
X168770000Y-70380000D01*
X168530000Y-70710000D01*
G37*
%TO.C,R12*%
X158920000Y-67296359D02*
X158920000Y-67603641D01*
X159680000Y-67296359D02*
X159680000Y-67603641D01*
%TO.C,JP2*%
X130100000Y-112250000D02*
X130100000Y-111650000D01*
X130650000Y-110450000D02*
X130950000Y-110750000D01*
X130750000Y-110950000D02*
X133550000Y-110950000D01*
X131250000Y-110450000D02*
X130650000Y-110450000D01*
X131250000Y-110450000D02*
X130950000Y-110750000D01*
X133550000Y-112950000D02*
X130750000Y-112950000D01*
X134200000Y-111650000D02*
X134200000Y-112250000D01*
X130100000Y-111650000D02*
G75*
G02*
X130800000Y-110950000I699999J1D01*
G01*
X130800000Y-112950000D02*
G75*
G02*
X130100000Y-112250000I-1J699999D01*
G01*
X133500000Y-110950000D02*
G75*
G02*
X134200000Y-111650000I0J-700000D01*
G01*
X134200000Y-112250000D02*
G75*
G02*
X133500000Y-112950000I-700000J0D01*
G01*
%TO.C,C62*%
X167865000Y-104990000D02*
X167865000Y-108900000D01*
X169735000Y-104990000D02*
X167865000Y-104990000D01*
X169735000Y-108900000D02*
X169735000Y-104990000D01*
%TO.C,JP9*%
X142050000Y-84350000D02*
X142050000Y-83750000D01*
X142750000Y-83050000D02*
X144150000Y-83050000D01*
X144150000Y-85050000D02*
X142750000Y-85050000D01*
X144850000Y-83750000D02*
X144850000Y-84350000D01*
X142050000Y-83750000D02*
G75*
G02*
X142750000Y-83050000I699999J1D01*
G01*
X142750000Y-85050000D02*
G75*
G02*
X142050000Y-84350000I-1J699999D01*
G01*
X144150000Y-83050000D02*
G75*
G02*
X144850000Y-83750000I0J-700000D01*
G01*
X144850000Y-84350000D02*
G75*
G02*
X144150000Y-85050000I-700000J0D01*
G01*
%TO.C,C21*%
X169240000Y-112892164D02*
X169240000Y-113107836D01*
X169960000Y-112892164D02*
X169960000Y-113107836D01*
%TO.C,Q5*%
X157050000Y-82040000D02*
X157700000Y-82040000D01*
X157050000Y-85160000D02*
X157700000Y-85160000D01*
X158350000Y-82040000D02*
X157700000Y-82040000D01*
X158350000Y-85160000D02*
X157700000Y-85160000D01*
X156777500Y-85440000D02*
X156297500Y-85440000D01*
X156537500Y-85110000D01*
X156777500Y-85440000D01*
G36*
X156777500Y-85440000D02*
G01*
X156297500Y-85440000D01*
X156537500Y-85110000D01*
X156777500Y-85440000D01*
G37*
%TO.C,C41*%
X131340000Y-56857836D02*
X131340000Y-56642164D01*
X132060000Y-56857836D02*
X132060000Y-56642164D01*
%TO.C,C7*%
X120840000Y-121240580D02*
X120840000Y-120959420D01*
X121860000Y-121240580D02*
X121860000Y-120959420D01*
%TO.C,R79*%
X196377064Y-57140000D02*
X194922936Y-57140000D01*
X196377064Y-58960000D02*
X194922936Y-58960000D01*
%TO.C,C8*%
X110192164Y-94690000D02*
X110407836Y-94690000D01*
X110192164Y-95410000D02*
X110407836Y-95410000D01*
%TO.C,U11*%
X125690000Y-64010000D02*
X125690000Y-60250000D01*
X126950000Y-64010000D02*
X125690000Y-64010000D01*
X131250000Y-64010000D02*
X132510000Y-64010000D01*
X132510000Y-64010000D02*
X132510000Y-60250000D01*
X125790000Y-58970000D02*
X125460000Y-59210000D01*
X125460000Y-58730000D01*
X125790000Y-58970000D01*
G36*
X125790000Y-58970000D02*
G01*
X125460000Y-59210000D01*
X125460000Y-58730000D01*
X125790000Y-58970000D01*
G37*
%TO.C,C51*%
X111540000Y-89859420D02*
X111540000Y-90140580D01*
X112560000Y-89859420D02*
X112560000Y-90140580D01*
%TO.C,JP8*%
X177800000Y-81500000D02*
X177800000Y-80100000D01*
X178500000Y-79400000D02*
X179100000Y-79400000D01*
X179100000Y-82200000D02*
X178500000Y-82200000D01*
X179800000Y-80100000D02*
X179800000Y-81500000D01*
X177800000Y-80100000D02*
G75*
G02*
X178500000Y-79400000I700000J0D01*
G01*
X178500000Y-82200000D02*
G75*
G02*
X177800000Y-81500000I-1J699999D01*
G01*
X179100000Y-79400000D02*
G75*
G02*
X179800000Y-80100000I0J-700000D01*
G01*
X179800000Y-81500000D02*
G75*
G02*
X179100000Y-82200000I-699999J-1D01*
G01*
%TO.C,D2*%
X183090000Y-129720000D02*
X183890000Y-129720000D01*
X183090000Y-130650000D02*
X183090000Y-129720000D01*
X183090000Y-131950000D02*
X183090000Y-132880000D01*
X184550000Y-132880000D02*
X183090000Y-132880000D01*
X184690000Y-129720000D02*
X183890000Y-129720000D01*
X185190000Y-129690000D02*
X184950000Y-129360000D01*
X185430000Y-129360000D01*
X185190000Y-129690000D01*
G36*
X185190000Y-129690000D02*
G01*
X184950000Y-129360000D01*
X185430000Y-129360000D01*
X185190000Y-129690000D01*
G37*
%TO.C,C97*%
X194265000Y-85913748D02*
X194265000Y-86436252D01*
X195735000Y-85913748D02*
X195735000Y-86436252D01*
%TO.C,C85*%
X195788748Y-72465000D02*
X196311252Y-72465000D01*
X195788748Y-73935000D02*
X196311252Y-73935000D01*
%TO.C,R71*%
X140120000Y-74403641D02*
X140120000Y-74096359D01*
X140880000Y-74403641D02*
X140880000Y-74096359D01*
%TO.C,R48*%
X124346359Y-61620000D02*
X124653641Y-61620000D01*
X124346359Y-62380000D02*
X124653641Y-62380000D01*
%TO.C,U14*%
X184840000Y-53790000D02*
X184840000Y-54515000D01*
X184840000Y-59010000D02*
X184840000Y-58285000D01*
X185565000Y-53790000D02*
X184840000Y-53790000D01*
X185565000Y-59010000D02*
X184840000Y-59010000D01*
X189335000Y-53790000D02*
X190060000Y-53790000D01*
X189820000Y-59010000D02*
X189335000Y-59010000D01*
X190060000Y-53790000D02*
X190060000Y-54515000D01*
X190060000Y-58710000D02*
X190060000Y-58285000D01*
X190390000Y-59250000D02*
X190060000Y-59010000D01*
X190390000Y-58770000D01*
X190390000Y-59250000D01*
G36*
X190390000Y-59250000D02*
G01*
X190060000Y-59010000D01*
X190390000Y-58770000D01*
X190390000Y-59250000D01*
G37*
%TO.C,R1*%
X176446359Y-146620000D02*
X176753641Y-146620000D01*
X176446359Y-147380000D02*
X176753641Y-147380000D01*
%TO.C,C95*%
X187092164Y-85040000D02*
X187307836Y-85040000D01*
X187092164Y-85760000D02*
X187307836Y-85760000D01*
%TO.C,JP5*%
X126400000Y-69550000D02*
X126400000Y-68950000D01*
X127100000Y-68250000D02*
X128500000Y-68250000D01*
X128500000Y-70250000D02*
X127100000Y-70250000D01*
X129200000Y-68950000D02*
X129200000Y-69550000D01*
X126400000Y-68950000D02*
G75*
G02*
X127100000Y-68250000I700000J0D01*
G01*
X127100000Y-70250000D02*
G75*
G02*
X126400000Y-69550000I0J700000D01*
G01*
X128500000Y-68250000D02*
G75*
G02*
X129200000Y-68950000I1J-699999D01*
G01*
X129200000Y-69550000D02*
G75*
G02*
X128500000Y-70250000I-699999J-1D01*
G01*
%TO.C,C81*%
X124509420Y-67790000D02*
X124790580Y-67790000D01*
X124509420Y-68810000D02*
X124790580Y-68810000D01*
%TO.C,R24*%
X177546359Y-114020000D02*
X177853641Y-114020000D01*
X177546359Y-114780000D02*
X177853641Y-114780000D01*
%TO.C,J36*%
X124520000Y-72045000D02*
X124520000Y-77245000D01*
X124520000Y-72045000D02*
X125090000Y-72045000D01*
X124520000Y-77245000D02*
X125090000Y-77245000D01*
X126610000Y-72045000D02*
X127630000Y-72045000D01*
X126610000Y-77245000D02*
X127630000Y-77245000D01*
X129150000Y-72045000D02*
X130170000Y-72045000D01*
X129150000Y-77245000D02*
X130170000Y-77245000D01*
X131690000Y-72045000D02*
X132710000Y-72045000D01*
X131690000Y-77245000D02*
X132710000Y-77245000D01*
X134230000Y-72045000D02*
X135250000Y-72045000D01*
X134230000Y-77245000D02*
X135250000Y-77245000D01*
X136770000Y-72045000D02*
X137790000Y-72045000D01*
X136770000Y-77245000D02*
X137790000Y-77245000D01*
X139310000Y-70685000D02*
X139310000Y-72045000D01*
X139310000Y-72045000D02*
X139880000Y-72045000D01*
X139310000Y-77245000D02*
X139880000Y-77245000D01*
X139880000Y-72045000D02*
X139880000Y-77245000D01*
%TO.C,U17*%
X161620000Y-65550000D02*
X161620000Y-61950000D01*
X157320000Y-62930000D02*
G75*
G02*
X161611741Y-61938125I2450000J-820000D01*
G01*
X161597684Y-65558445D02*
G75*
G02*
X157320000Y-64530000I-1827684J1808445D01*
G01*
%TO.C,R20*%
X188090000Y-132472936D02*
X188090000Y-133927064D01*
X189910000Y-132472936D02*
X189910000Y-133927064D01*
D13*
%TO.C,J25*%
X155200000Y-67000000D02*
X155700000Y-67000000D01*
X155200000Y-67500000D02*
X155200000Y-67000000D01*
X155700000Y-67000000D02*
X155200000Y-67500000D01*
X156000000Y-67000000D02*
X132800000Y-67000000D01*
X132800000Y-55800000D01*
X156000000Y-55800000D01*
X156000000Y-67000000D01*
D12*
%TO.C,C52*%
X112490580Y-83640000D02*
X112209420Y-83640000D01*
X112490580Y-84660000D02*
X112209420Y-84660000D01*
%TO.C,D10*%
X152500000Y-81100000D02*
X148600000Y-81100000D01*
X152500000Y-84300000D02*
X148600000Y-84300000D01*
X152500000Y-84300000D02*
X152500000Y-81100000D01*
%TO.C,R34*%
X123170000Y-76621359D02*
X123170000Y-76928641D01*
X123930000Y-76621359D02*
X123930000Y-76928641D01*
D13*
%TO.C,D17*%
X142450000Y-95850000D02*
X141550000Y-95850000D01*
X141550000Y-94950000D01*
X142450000Y-95850000D01*
G36*
X142450000Y-95850000D02*
G01*
X141550000Y-95850000D01*
X141550000Y-94950000D01*
X142450000Y-95850000D01*
G37*
D12*
%TO.C,J5*%
X99892500Y-123900000D02*
X99892500Y-133300000D01*
X99892500Y-123900000D02*
X101792500Y-123900000D01*
X99892500Y-133300000D02*
X101792500Y-133300000D01*
X103692500Y-123900000D02*
X105692500Y-123900000D01*
X103692500Y-133300000D02*
X105692500Y-133300000D01*
%TO.C,JP4*%
X135700000Y-69550000D02*
X135700000Y-68950000D01*
X136400000Y-68250000D02*
X137800000Y-68250000D01*
X137800000Y-70250000D02*
X136400000Y-70250000D01*
X138500000Y-68950000D02*
X138500000Y-69550000D01*
X135700000Y-68950000D02*
G75*
G02*
X136400000Y-68250000I699999J1D01*
G01*
X136400000Y-70250000D02*
G75*
G02*
X135700000Y-69550000I-1J699999D01*
G01*
X137800000Y-68250000D02*
G75*
G02*
X138500000Y-68950000I0J-700000D01*
G01*
X138500000Y-69550000D02*
G75*
G02*
X137800000Y-70250000I-700000J0D01*
G01*
D13*
%TO.C,D16*%
X146950000Y-95800000D02*
X146050000Y-95800000D01*
X146050000Y-94900000D01*
X146950000Y-95800000D01*
G36*
X146950000Y-95800000D02*
G01*
X146050000Y-95800000D01*
X146050000Y-94900000D01*
X146950000Y-95800000D01*
G37*
D12*
%TO.C,Q2*%
X181040000Y-66512500D02*
X181040000Y-67162500D01*
X181040000Y-67812500D02*
X181040000Y-67162500D01*
X184160000Y-66512500D02*
X184160000Y-67162500D01*
X184160000Y-67812500D02*
X184160000Y-67162500D01*
X184440000Y-68565000D02*
X184110000Y-68325000D01*
X184440000Y-68085000D01*
X184440000Y-68565000D01*
G36*
X184440000Y-68565000D02*
G01*
X184110000Y-68325000D01*
X184440000Y-68085000D01*
X184440000Y-68565000D01*
G37*
%TO.C,R23*%
X182465000Y-116127064D02*
X182465000Y-115672936D01*
X183935000Y-116127064D02*
X183935000Y-115672936D01*
%TO.C,TP1*%
X186895000Y-119685000D02*
G75*
G02*
X185495000Y-119685000I-700000J0D01*
G01*
X185495000Y-119685000D02*
G75*
G02*
X186895000Y-119685000I700000J0D01*
G01*
%TO.C,C44*%
X134607836Y-67290000D02*
X134392164Y-67290000D01*
X134607836Y-68010000D02*
X134392164Y-68010000D01*
%TO.C,R42*%
X184020000Y-122753641D02*
X184020000Y-122446359D01*
X184780000Y-122753641D02*
X184780000Y-122446359D01*
D13*
%TO.C,D14*%
X181950000Y-78600000D02*
X183350000Y-78600000D01*
X183350000Y-76800000D02*
X181950000Y-76800000D01*
X183350000Y-78600000D02*
X183350000Y-76800000D01*
D12*
%TO.C,C79*%
X120590000Y-66140580D02*
X120590000Y-65859420D01*
X121610000Y-66140580D02*
X121610000Y-65859420D01*
%TO.C,C102*%
X195763748Y-62165000D02*
X196286252Y-62165000D01*
X195763748Y-63635000D02*
X196286252Y-63635000D01*
%TO.C,Q1*%
X161250000Y-66640000D02*
X161900000Y-66640000D01*
X161250000Y-69760000D02*
X161900000Y-69760000D01*
X162550000Y-66640000D02*
X161900000Y-66640000D01*
X162550000Y-69760000D02*
X161900000Y-69760000D01*
X160977500Y-70040000D02*
X160497500Y-70040000D01*
X160737500Y-69710000D01*
X160977500Y-70040000D01*
G36*
X160977500Y-70040000D02*
G01*
X160497500Y-70040000D01*
X160737500Y-69710000D01*
X160977500Y-70040000D01*
G37*
%TO.C,C42*%
X122890000Y-55442164D02*
X122890000Y-55657836D01*
X123610000Y-55442164D02*
X123610000Y-55657836D01*
%TO.C,D12*%
X151400000Y-67500000D02*
X151400000Y-71400000D01*
X154600000Y-67500000D02*
X151400000Y-67500000D01*
X154600000Y-67500000D02*
X154600000Y-71400000D01*
%TO.C,D11*%
X151400000Y-74500000D02*
X151400000Y-78400000D01*
X154600000Y-74500000D02*
X151400000Y-74500000D01*
X154600000Y-74500000D02*
X154600000Y-78400000D01*
%TO.C,C82*%
X121642164Y-60740000D02*
X121857836Y-60740000D01*
X121642164Y-61460000D02*
X121857836Y-61460000D01*
%TO.C,C92*%
X189690000Y-77059420D02*
X189690000Y-77340580D01*
X190710000Y-77059420D02*
X190710000Y-77340580D01*
%TO.C,R22*%
X126246359Y-90420000D02*
X126553641Y-90420000D01*
X126246359Y-91180000D02*
X126553641Y-91180000D01*
%TO.C,R13*%
X167340000Y-80427064D02*
X167340000Y-78972936D01*
X169160000Y-80427064D02*
X169160000Y-78972936D01*
%TO.C,C13*%
X163519190Y-118871693D02*
X163671693Y-118719190D01*
X164028307Y-119380810D02*
X164180810Y-119228307D01*
%TO.C,R70*%
X163020000Y-95453641D02*
X163020000Y-95146359D01*
X163780000Y-95453641D02*
X163780000Y-95146359D01*
%TO.C,R47*%
X136187258Y-111927500D02*
X135712742Y-111927500D01*
X136187258Y-112972500D02*
X135712742Y-112972500D01*
%TO.C,R6*%
X181070000Y-80896359D02*
X181070000Y-81203641D01*
X181830000Y-80896359D02*
X181830000Y-81203641D01*
%TO.C,C68*%
X189690000Y-64559419D02*
X189690000Y-64840581D01*
X190710000Y-64559419D02*
X190710000Y-64840581D01*
%TO.C,R10*%
X110453641Y-101670000D02*
X110146359Y-101670000D01*
X110453641Y-102430000D02*
X110146359Y-102430000D01*
%TO.C,R66*%
X168746359Y-121970000D02*
X169053641Y-121970000D01*
X168746359Y-122730000D02*
X169053641Y-122730000D01*
%TO.C,R44*%
X120320000Y-136146359D02*
X120320000Y-136453641D01*
X121080000Y-136146359D02*
X121080000Y-136453641D01*
%TO.C,C71*%
X187092164Y-72540000D02*
X187307836Y-72540000D01*
X187092164Y-73260000D02*
X187307836Y-73260000D01*
%TO.C,R9*%
X109520000Y-144253641D02*
X109520000Y-143946359D01*
X110280000Y-144253641D02*
X110280000Y-143946359D01*
%TO.C,R78*%
X142440000Y-117827064D02*
X142440000Y-116372936D01*
X144260000Y-117827064D02*
X144260000Y-116372936D01*
%TO.C,R84*%
X196377064Y-69990000D02*
X194922936Y-69990000D01*
X196377064Y-71810000D02*
X194922936Y-71810000D01*
%TO.C,C6*%
X145090000Y-141240580D02*
X145090000Y-140959420D01*
X146110000Y-141240580D02*
X146110000Y-140959420D01*
%TO.C,R46*%
X188090000Y-142627064D02*
X188090000Y-141172936D01*
X189910000Y-142627064D02*
X189910000Y-141172936D01*
%TO.C,FB2*%
X128337221Y-93140000D02*
X128662779Y-93140000D01*
X128337221Y-94160000D02*
X128662779Y-94160000D01*
D11*
%TO.C,U7*%
X180125000Y-143980000D02*
X181525000Y-143980000D01*
X181525000Y-139120000D02*
X181525000Y-138975000D01*
X181525000Y-143980000D02*
X181525000Y-144125000D01*
X185675000Y-138975000D02*
X181525000Y-138975000D01*
X185675000Y-139120000D02*
X185675000Y-138975000D01*
X185675000Y-143980000D02*
X185675000Y-144125000D01*
X185675000Y-144125000D02*
X181525000Y-144125000D01*
D12*
%TO.C,C4*%
X136461252Y-109965000D02*
X135938748Y-109965000D01*
X136461252Y-111435000D02*
X135938748Y-111435000D01*
%TO.C,C96*%
X196240000Y-85913748D02*
X196240000Y-86436252D01*
X197710000Y-85913748D02*
X197710000Y-86436252D01*
%TO.C,R5*%
X189346359Y-138570000D02*
X189653641Y-138570000D01*
X189346359Y-139330000D02*
X189653641Y-139330000D01*
%TD*%
D14*
%TO.C,J14*%
X190975000Y-104000000D03*
X196975000Y-104000000D03*
%TD*%
%TO.C,J16*%
X190975000Y-115000000D03*
X196975000Y-115000000D03*
%TD*%
%TO.C,J3*%
X190975000Y-93000000D03*
X196975000Y-93000000D03*
%TD*%
%LPC*%
D15*
%TO.C,J12*%
X111600000Y-148380000D03*
D16*
X111600000Y-145840000D03*
X111600000Y-143300000D03*
X111600000Y-140760000D03*
X111600000Y-138220000D03*
X111600000Y-135680000D03*
X111600000Y-133140000D03*
X111600000Y-130600000D03*
%TD*%
D15*
%TO.C,J10*%
X114800000Y-110600000D03*
D16*
X114800000Y-113140000D03*
X114800000Y-115680000D03*
X114800000Y-118220000D03*
X114800000Y-120760000D03*
X114800000Y-123300000D03*
%TD*%
D17*
%TO.C,J30*%
X192300000Y-72950000D03*
X192300000Y-70450000D03*
X192300000Y-67950000D03*
X192300000Y-65450000D03*
%TD*%
D18*
%TO.C,J9*%
X118457500Y-57700000D03*
D19*
X118457500Y-63700000D03*
D20*
X113757500Y-60700000D03*
%TD*%
D21*
%TO.C,J27*%
X108005000Y-110950000D03*
X108005000Y-114450000D03*
X108005000Y-117950000D03*
X108005000Y-121450000D03*
%TD*%
D22*
%TO.C,R32*%
X174800000Y-86400000D03*
X171400000Y-86400000D03*
%TD*%
D23*
%TO.C,U13*%
X181850000Y-124650000D03*
D24*
X183120000Y-122580000D03*
X184390000Y-124650000D03*
%TD*%
D25*
%TO.C,J15*%
X192000000Y-147550000D03*
X192000000Y-144050000D03*
X192000000Y-140550000D03*
X192000000Y-137050000D03*
%TD*%
D15*
%TO.C,J26*%
X124520000Y-97940000D03*
D16*
X124520000Y-95400000D03*
X127060000Y-97940000D03*
X127060000Y-95400000D03*
X129600000Y-97940000D03*
X129600000Y-95400000D03*
%TD*%
D21*
%TO.C,J2*%
X108005000Y-137050000D03*
X108005000Y-140550000D03*
X108005000Y-144050000D03*
X108005000Y-147550000D03*
%TD*%
%TO.C,J1*%
X108005000Y-95550000D03*
X108005000Y-99050000D03*
X108005000Y-102550000D03*
X108005000Y-106050000D03*
%TD*%
D26*
%TO.C,M1*%
X162540000Y-51500000D03*
D27*
X162540000Y-54040000D03*
X162540000Y-56580000D03*
X162540000Y-59120000D03*
X162540000Y-61660000D03*
X162540000Y-64200000D03*
X182860000Y-64200000D03*
X182860000Y-61660000D03*
X182860000Y-59120000D03*
X182860000Y-56580000D03*
X182860000Y-54040000D03*
X182860000Y-51500000D03*
%TD*%
D17*
%TO.C,J24*%
X192300000Y-60050000D03*
X192300000Y-57550000D03*
X192300000Y-55050000D03*
X192300000Y-52550000D03*
%TD*%
D15*
%TO.C,J19*%
X111200000Y-123300000D03*
D16*
X111200000Y-120760000D03*
X111200000Y-118220000D03*
X111200000Y-115680000D03*
X111200000Y-113140000D03*
X111200000Y-110600000D03*
%TD*%
D28*
%TO.C,J20*%
X115200000Y-130680000D03*
D29*
X115200000Y-133220000D03*
D16*
X115200000Y-135760000D03*
X115200000Y-138300000D03*
X115200000Y-140840000D03*
X115200000Y-143380000D03*
X115200000Y-145920000D03*
X115200000Y-148460000D03*
%TD*%
D30*
%TO.C,J4*%
X115000000Y-104700000D03*
D31*
X115000000Y-102160000D03*
X115000000Y-99620000D03*
X115000000Y-97080000D03*
%TD*%
D32*
%TO.C,X3*%
X164950000Y-68300000D03*
X167490000Y-68300000D03*
X170030000Y-68300000D03*
X172570000Y-68300000D03*
X175110000Y-68300000D03*
X177650000Y-68300000D03*
X180190000Y-68300000D03*
%TD*%
D21*
%TO.C,J22*%
X108005000Y-52450000D03*
X108005000Y-55950000D03*
X108005000Y-59450000D03*
X108005000Y-62950000D03*
%TD*%
D15*
%TO.C,U15*%
X168875000Y-62489500D03*
D33*
X168875000Y-59949500D03*
X171415000Y-62489500D03*
X171415000Y-59949500D03*
X173955000Y-62489500D03*
X173955000Y-59949500D03*
X176495000Y-62489500D03*
X176495000Y-59949500D03*
%TD*%
D34*
%TO.C,U6*%
X165792500Y-51492500D03*
D35*
X165792500Y-53492500D03*
X165792500Y-55492500D03*
X165792500Y-57492500D03*
X165792500Y-59492500D03*
X165792500Y-61492500D03*
X165792500Y-63492500D03*
X165792500Y-65492500D03*
X179392500Y-65492500D03*
X179392500Y-63492500D03*
X179392500Y-61492500D03*
X179392500Y-59492500D03*
X179392500Y-57492500D03*
X179392500Y-55492500D03*
X179392500Y-53492500D03*
X179392500Y-51492500D03*
%TD*%
D17*
%TO.C,J31*%
X192300000Y-85550000D03*
X192300000Y-83050000D03*
X192300000Y-80550000D03*
X192300000Y-78050000D03*
%TD*%
D14*
%TO.C,MK1*%
X186650000Y-115000000D03*
X184750000Y-115000000D03*
%TD*%
%TO.C,SW6*%
X175100000Y-114261000D03*
X170600000Y-114261000D03*
%TD*%
D15*
%TO.C,J23*%
X123700000Y-105900000D03*
D16*
X126240000Y-105900000D03*
X128780000Y-105900000D03*
X131320000Y-105900000D03*
X133860000Y-105900000D03*
X136400000Y-105900000D03*
%TD*%
D36*
%TO.C,X1*%
X125000000Y-142500000D03*
X175000000Y-142500000D03*
%TD*%
D37*
%TO.C,J18*%
X120400000Y-98100000D03*
D38*
X120400000Y-95600000D03*
X120400000Y-93100000D03*
%TD*%
D39*
%TO.C,J8*%
X128700000Y-102200000D03*
D16*
X131240000Y-102200000D03*
X133780000Y-102200000D03*
X136320000Y-102200000D03*
%TD*%
D25*
%TO.C,J21*%
X192000000Y-132150000D03*
X192000000Y-128650000D03*
X192000000Y-125150000D03*
X192000000Y-121650000D03*
%TD*%
D40*
%TO.C,U22*%
X175165869Y-79767990D03*
D41*
X176023080Y-77698500D03*
X175167990Y-75634131D03*
X171034131Y-75632010D03*
X170176920Y-77701500D03*
X171032010Y-79765869D03*
%TD*%
D21*
%TO.C,J28*%
X108005000Y-80150000D03*
X108005000Y-83650000D03*
X108005000Y-87150000D03*
X108005000Y-90650000D03*
%TD*%
D42*
%TO.C,C9*%
X110780000Y-99600000D03*
X109820000Y-99600000D03*
%TD*%
D43*
%TO.C,C88*%
X197000000Y-75175000D03*
X195100000Y-75175000D03*
%TD*%
D44*
%TO.C,C32*%
X127820000Y-92000000D03*
X127180000Y-92000000D03*
%TD*%
D45*
%TO.C,C75*%
X185900000Y-60570000D03*
X185900000Y-59930000D03*
%TD*%
D42*
%TO.C,C43*%
X134980000Y-68600000D03*
X134020000Y-68600000D03*
%TD*%
D46*
%TO.C,C103*%
X191675000Y-62900000D03*
X193575000Y-62900000D03*
%TD*%
D47*
%TO.C,C19*%
X180000000Y-109850000D03*
X185600000Y-109850000D03*
%TD*%
D48*
%TO.C,C94*%
X183850000Y-83420000D03*
X183850000Y-84380000D03*
%TD*%
D49*
%TO.C,R76*%
X118100000Y-95900000D03*
X118100000Y-97900000D03*
%TD*%
D50*
%TO.C,R7*%
X118125000Y-121100000D03*
X119775000Y-121100000D03*
%TD*%
D51*
%TO.C,Q6*%
X144250000Y-122237500D03*
X142350000Y-122237500D03*
X143300000Y-120362500D03*
%TD*%
D52*
%TO.C,R33*%
X127750000Y-53800000D03*
X172250000Y-53800000D03*
D53*
X110300000Y-63800000D03*
X187500000Y-63800000D03*
%TD*%
D54*
%TO.C,R45*%
X155300000Y-82980000D03*
X155300000Y-83620000D03*
%TD*%
D55*
%TO.C,SW3*%
X196930000Y-142700000D03*
X196930000Y-145700000D03*
D56*
X194920000Y-141950000D03*
X194920000Y-144950000D03*
X194920000Y-146450000D03*
D57*
X198030000Y-140050000D03*
X195820000Y-140050000D03*
X198030000Y-148350000D03*
X195820000Y-148350000D03*
%TD*%
D58*
%TO.C,C84*%
X114575000Y-66850000D03*
X113025000Y-66850000D03*
%TD*%
D59*
%TO.C,C14*%
X171660589Y-116610589D03*
X172339411Y-117289411D03*
%TD*%
D44*
%TO.C,R60*%
X122870000Y-62000000D03*
X122230000Y-62000000D03*
%TD*%
D60*
%TO.C,R69*%
X124360000Y-88900000D03*
X123340000Y-88900000D03*
%TD*%
D61*
%TO.C,R68*%
X123080000Y-89750000D03*
X123720000Y-89750000D03*
%TD*%
D62*
%TO.C,TP6*%
X183655000Y-119685000D03*
%TD*%
%TO.C,J17*%
X141500000Y-138725000D03*
X133500000Y-138725000D03*
D63*
X134300000Y-127725000D03*
X135400000Y-127725000D03*
X136500000Y-127725000D03*
X137600000Y-127725000D03*
X138700000Y-127725000D03*
X139800000Y-127725000D03*
X140900000Y-127725000D03*
X142000000Y-127725000D03*
X143100000Y-127725000D03*
D64*
X144300000Y-138325000D03*
D65*
X144300000Y-128725000D03*
D66*
X129700000Y-128725000D03*
D64*
X128800000Y-138325000D03*
%TD*%
D67*
%TO.C,C17*%
X172550000Y-107200000D03*
X175250000Y-107200000D03*
%TD*%
D68*
%TO.C,U3*%
X114862500Y-91125000D03*
X114862500Y-90475000D03*
X114862500Y-89825000D03*
X114862500Y-89175000D03*
X114862500Y-88525000D03*
X114862500Y-87875000D03*
X114862500Y-87225000D03*
X114862500Y-86575000D03*
X114862500Y-85925000D03*
X114862500Y-85275000D03*
X114862500Y-84625000D03*
X114862500Y-83975000D03*
X114862500Y-83325000D03*
X114862500Y-82675000D03*
X120587500Y-82675000D03*
X120587500Y-83325000D03*
X120587500Y-83975000D03*
X120587500Y-84625000D03*
X120587500Y-85275000D03*
X120587500Y-85925000D03*
X120587500Y-86575000D03*
X120587500Y-87225000D03*
X120587500Y-87875000D03*
X120587500Y-88525000D03*
X120587500Y-89175000D03*
X120587500Y-89825000D03*
X120587500Y-90475000D03*
X120587500Y-91125000D03*
D69*
X117725000Y-86900000D03*
%TD*%
D70*
%TO.C,C12*%
X163489411Y-118010589D03*
X162810589Y-118689411D03*
%TD*%
D61*
%TO.C,R59*%
X121430000Y-60250000D03*
X122070000Y-60250000D03*
%TD*%
D71*
%TO.C,L4*%
X115675000Y-71100000D03*
X122725000Y-71100000D03*
%TD*%
D55*
%TO.C,SW2*%
X196900000Y-131700000D03*
X196900000Y-134700000D03*
D56*
X194890000Y-130950000D03*
X194890000Y-133950000D03*
X194890000Y-135450000D03*
D57*
X198000000Y-129050000D03*
X195790000Y-129050000D03*
X198000000Y-137350000D03*
X195790000Y-137350000D03*
%TD*%
D45*
%TO.C,R51*%
X111600000Y-99470000D03*
X111600000Y-98830000D03*
%TD*%
D72*
%TO.C,R38*%
X105100000Y-85837500D03*
X105100000Y-88762500D03*
%TD*%
D73*
%TO.C,SW5*%
X126650000Y-124250000D03*
X135150000Y-124250000D03*
X126650000Y-119750000D03*
X135150000Y-119750000D03*
%TD*%
D44*
%TO.C,C91*%
X185770000Y-78300000D03*
X185130000Y-78300000D03*
%TD*%
D74*
%TO.C,D21*%
X157650000Y-89150000D03*
X156150000Y-89150000D03*
X156150000Y-94550000D03*
X157650000Y-94550000D03*
%TD*%
D75*
%TO.C,C28*%
X127575000Y-109450000D03*
X129125000Y-109450000D03*
%TD*%
D46*
%TO.C,C78*%
X191700000Y-75500000D03*
X193600000Y-75500000D03*
%TD*%
D54*
%TO.C,C50*%
X139700000Y-90080000D03*
X139700000Y-90720000D03*
%TD*%
D76*
%TO.C,C36*%
X137195000Y-79725000D03*
X138155000Y-79725000D03*
%TD*%
D77*
%TO.C,C38*%
X113400000Y-91480000D03*
X113400000Y-90520000D03*
%TD*%
D46*
%TO.C,C1*%
X141250000Y-112450000D03*
X143150000Y-112450000D03*
%TD*%
D44*
%TO.C,C54*%
X118420000Y-133350000D03*
X117780000Y-133350000D03*
%TD*%
D45*
%TO.C,C25*%
X140350000Y-76570000D03*
X140350000Y-75930000D03*
%TD*%
D42*
%TO.C,C10*%
X110780000Y-103050000D03*
X109820000Y-103050000D03*
%TD*%
D50*
%TO.C,R3*%
X138175000Y-112450000D03*
X139825000Y-112450000D03*
%TD*%
D61*
%TO.C,R18*%
X109080000Y-129850000D03*
X109720000Y-129850000D03*
%TD*%
D78*
%TO.C,LS2*%
X154000000Y-97800000D03*
X150000000Y-97800000D03*
X146000000Y-97800000D03*
X156000000Y-99050000D03*
X152000000Y-99050000D03*
X148000000Y-99050000D03*
X144000000Y-99050000D03*
X158000000Y-100300000D03*
X154000000Y-100300000D03*
X150000000Y-100300000D03*
X146000000Y-100300000D03*
X142000000Y-100300000D03*
X156000000Y-101550000D03*
X152000000Y-101550000D03*
X148000000Y-101550000D03*
X144000000Y-101550000D03*
X158000000Y-102800000D03*
X154000000Y-102800000D03*
X150000000Y-102800000D03*
X146000000Y-102800000D03*
X142000000Y-102800000D03*
X156000000Y-104050000D03*
X152000000Y-104050000D03*
X148000000Y-104050000D03*
X144000000Y-104050000D03*
X158000000Y-105300000D03*
X154000000Y-105300000D03*
X150000000Y-105300000D03*
X146000000Y-105300000D03*
X142000000Y-105300000D03*
X156000000Y-106550000D03*
X152000000Y-106550000D03*
X148000000Y-106550000D03*
X144000000Y-106550000D03*
X154000000Y-107800000D03*
X150000000Y-107800000D03*
X146000000Y-107800000D03*
%TD*%
D79*
%TO.C,R49*%
X102590000Y-104300000D03*
X103610000Y-104300000D03*
%TD*%
D80*
%TO.C,D20*%
X159450000Y-88900000D03*
X161550000Y-88900000D03*
%TD*%
D45*
%TO.C,C45*%
X158500000Y-89520000D03*
X158500000Y-88880000D03*
%TD*%
D61*
%TO.C,R54*%
X185130000Y-118300000D03*
X185770000Y-118300000D03*
%TD*%
D81*
%TO.C,D19*%
X122200000Y-76650000D03*
X118400000Y-76650000D03*
%TD*%
D82*
%TO.C,SW7*%
X175350000Y-103250000D03*
X175350000Y-94750000D03*
X170850000Y-103250000D03*
X170850000Y-94750000D03*
%TD*%
D54*
%TO.C,R55*%
X192000000Y-109880000D03*
X192000000Y-110520000D03*
%TD*%
D14*
%TO.C,J14*%
X190975000Y-104000000D03*
X196975000Y-104000000D03*
D83*
X194575000Y-100500000D03*
X197275000Y-107500000D03*
X198275000Y-100500000D03*
X190275000Y-107500000D03*
X188575000Y-100500000D03*
%TD*%
D84*
%TO.C,U2*%
X134925000Y-114020000D03*
X134925000Y-115290000D03*
X134925000Y-116560000D03*
X134925000Y-117830000D03*
X129975000Y-117830000D03*
X129975000Y-116560000D03*
X129975000Y-115290000D03*
X129975000Y-114020000D03*
D85*
X132450000Y-115925000D03*
%TD*%
D75*
%TO.C,C29*%
X118175000Y-122600000D03*
X119725000Y-122600000D03*
%TD*%
D86*
%TO.C,U8*%
X121187500Y-130250000D03*
X121187500Y-131200000D03*
X121187500Y-132150000D03*
X118912500Y-132150000D03*
X118912500Y-131200000D03*
X118912500Y-130250000D03*
%TD*%
D60*
%TO.C,R73*%
X111909999Y-127450000D03*
X110890001Y-127450000D03*
%TD*%
D87*
%TO.C,LS1*%
X151975000Y-111325000D03*
X151975000Y-114375000D03*
%TD*%
D88*
%TO.C,C35*%
X139823726Y-82873726D03*
X140276274Y-83326274D03*
%TD*%
D89*
%TO.C,C69*%
X196475000Y-50950000D03*
X196475000Y-52850000D03*
%TD*%
D90*
%TO.C,C63*%
X110100000Y-89025000D03*
X110100000Y-90575000D03*
%TD*%
D76*
%TO.C,C67*%
X145020000Y-117950000D03*
X145980000Y-117950000D03*
%TD*%
D44*
%TO.C,C47*%
X150420000Y-88750000D03*
X149780000Y-88750000D03*
%TD*%
D46*
%TO.C,C80*%
X117700001Y-66500000D03*
X119599999Y-66500000D03*
%TD*%
D54*
%TO.C,C60*%
X170900000Y-73080000D03*
X170900000Y-73720000D03*
%TD*%
D91*
%TO.C,J13*%
X106350000Y-74740000D03*
X106350000Y-68960000D03*
D92*
X107795000Y-75100000D03*
X107795000Y-74300000D03*
D93*
X107795000Y-73100000D03*
X107795000Y-72100000D03*
X107795000Y-71600000D03*
X107795000Y-70600000D03*
D92*
X107795000Y-69400000D03*
X107795000Y-68600000D03*
X107795000Y-68600000D03*
X107795000Y-69400000D03*
D93*
X107795000Y-70100000D03*
X107795000Y-71100000D03*
X107795000Y-72600000D03*
X107795000Y-73600000D03*
D92*
X107795000Y-74300000D03*
X107795000Y-75100000D03*
D94*
X102700000Y-76170000D03*
D95*
X106880000Y-76170000D03*
D94*
X102700000Y-67530000D03*
D95*
X106880000Y-67530000D03*
%TD*%
D50*
%TO.C,R28*%
X118125000Y-119550000D03*
X119775000Y-119550000D03*
%TD*%
D96*
%TO.C,C39*%
X112800000Y-81050000D03*
X112800000Y-75450000D03*
%TD*%
D97*
%TO.C,R29*%
X173873726Y-83076274D03*
X174326274Y-82623726D03*
%TD*%
D44*
%TO.C,C26*%
X138270000Y-126500000D03*
X137630000Y-126500000D03*
%TD*%
D75*
%TO.C,C31*%
X127575000Y-110950000D03*
X129125000Y-110950000D03*
%TD*%
D98*
%TO.C,U10*%
X170869848Y-118194975D03*
X170516295Y-118548528D03*
X170162742Y-118902082D03*
X169809188Y-119255635D03*
X169455635Y-119609188D03*
X169102082Y-119962742D03*
X168748528Y-120316295D03*
X168394975Y-120669848D03*
D99*
X167405025Y-120669848D03*
X167051472Y-120316295D03*
X166697918Y-119962742D03*
X166344365Y-119609188D03*
X165990812Y-119255635D03*
X165637258Y-118902082D03*
X165283705Y-118548528D03*
X164930152Y-118194975D03*
D98*
X164930152Y-117205025D03*
X165283705Y-116851472D03*
X165637258Y-116497918D03*
X165990812Y-116144365D03*
X166344365Y-115790812D03*
X166697918Y-115437258D03*
X167051472Y-115083705D03*
X167405025Y-114730152D03*
D99*
X168394975Y-114730152D03*
X168748528Y-115083705D03*
X169102082Y-115437258D03*
X169455635Y-115790812D03*
X169809188Y-116144365D03*
X170162742Y-116497918D03*
X170516295Y-116851472D03*
X170869848Y-117205025D03*
D100*
X167900000Y-117700000D03*
%TD*%
D44*
%TO.C,C53*%
X168920000Y-130400000D03*
X168280000Y-130400000D03*
%TD*%
D101*
%TO.C,FB1*%
X172643153Y-115956847D03*
X173756847Y-114843153D03*
%TD*%
D43*
%TO.C,C72*%
X196975000Y-60925000D03*
X195075000Y-60925000D03*
%TD*%
D102*
%TO.C,U19*%
X188950000Y-71762500D03*
X188450000Y-71762500D03*
X187950000Y-71762500D03*
X187450000Y-71762500D03*
X186950000Y-71762500D03*
X186450000Y-71762500D03*
X185950000Y-71762500D03*
D103*
X184987500Y-70800000D03*
X184987500Y-70300000D03*
X184987500Y-69800000D03*
X184987500Y-69300000D03*
X184987500Y-68800000D03*
X184987500Y-68300000D03*
X184987500Y-67800000D03*
D102*
X185950000Y-66837500D03*
X186450000Y-66837500D03*
X186950000Y-66837500D03*
X187450000Y-66837500D03*
X187950000Y-66837500D03*
X188450000Y-66837500D03*
X188950000Y-66837500D03*
D103*
X189912500Y-67800000D03*
X189912500Y-68300000D03*
X189912500Y-68800000D03*
X189912500Y-69300000D03*
X189912500Y-69800000D03*
X189912500Y-70300000D03*
X189912500Y-70800000D03*
D104*
X187450000Y-69300000D03*
%TD*%
D44*
%TO.C,C27*%
X145670000Y-118850000D03*
X145030000Y-118850000D03*
%TD*%
D105*
%TO.C,C20*%
X181000000Y-118300000D03*
X178300000Y-118300000D03*
%TD*%
D42*
%TO.C,C59*%
X169080000Y-58400000D03*
X168120000Y-58400000D03*
%TD*%
D90*
%TO.C,C86*%
X190200000Y-60225000D03*
X190200000Y-61775000D03*
%TD*%
D105*
%TO.C,C23*%
X181000000Y-116150000D03*
X178300000Y-116150000D03*
%TD*%
D54*
%TO.C,R58*%
X145700000Y-130530000D03*
X145700000Y-131170000D03*
%TD*%
D106*
%TO.C,C56*%
X119100000Y-141575000D03*
X119100000Y-140025000D03*
%TD*%
D44*
%TO.C,C48*%
X145820000Y-88750000D03*
X145180000Y-88750000D03*
%TD*%
D76*
%TO.C,C22*%
X177220000Y-113400000D03*
X178180000Y-113400000D03*
%TD*%
D106*
%TO.C,C76*%
X190200000Y-52525000D03*
X190200000Y-50975000D03*
%TD*%
D60*
%TO.C,R35*%
X155310000Y-84525000D03*
X154290000Y-84525000D03*
%TD*%
D107*
%TO.C,R88*%
X194187500Y-82325000D03*
X197112500Y-82325000D03*
%TD*%
D108*
%TO.C,D3*%
X187750000Y-145600000D03*
X189650000Y-145600000D03*
X188700000Y-148600000D03*
%TD*%
D67*
%TO.C,C16*%
X171050000Y-109800000D03*
X173750000Y-109800000D03*
%TD*%
D109*
%TO.C,R77*%
X118100000Y-101600000D03*
X118100000Y-99600000D03*
%TD*%
D44*
%TO.C,R39*%
X170720000Y-93300000D03*
X170080000Y-93300000D03*
%TD*%
D58*
%TO.C,C83*%
X114575000Y-68350000D03*
X113025000Y-68350000D03*
%TD*%
D77*
%TO.C,C15*%
X168650000Y-113730000D03*
X168650000Y-112770000D03*
%TD*%
D76*
%TO.C,C61*%
X122020000Y-82700000D03*
X122980000Y-82700000D03*
%TD*%
D107*
%TO.C,R80*%
X194187500Y-67450000D03*
X197112500Y-67450000D03*
%TD*%
D45*
%TO.C,R75*%
X145450000Y-122220000D03*
X145450000Y-121580000D03*
%TD*%
D110*
%TO.C,C24*%
X166400000Y-106750000D03*
X166400000Y-109450000D03*
%TD*%
D72*
%TO.C,R15*%
X165950000Y-78237500D03*
X165950000Y-81162500D03*
%TD*%
D111*
%TO.C,U27*%
X124600000Y-66450000D03*
X123650000Y-66450000D03*
X122700000Y-66450000D03*
X122700000Y-63750000D03*
X123650000Y-63750000D03*
X124600000Y-63750000D03*
%TD*%
D43*
%TO.C,C93*%
X197000000Y-77150000D03*
X195100000Y-77150000D03*
%TD*%
D60*
%TO.C,R74*%
X144310000Y-123700000D03*
X143290000Y-123700000D03*
%TD*%
D107*
%TO.C,R83*%
X194187500Y-54725000D03*
X197112500Y-54725000D03*
%TD*%
D75*
%TO.C,C30*%
X127575000Y-112450000D03*
X129125000Y-112450000D03*
%TD*%
D112*
%TO.C,U12*%
X118845000Y-148200000D03*
X118845000Y-147200000D03*
X118845000Y-146200000D03*
X120845000Y-146200000D03*
X120845000Y-147200000D03*
X120845000Y-148200000D03*
%TD*%
D54*
%TO.C,R65*%
X140400000Y-72280000D03*
X140400000Y-72920000D03*
%TD*%
D113*
%TO.C,D8*%
X147000000Y-71300000D03*
D114*
X147000000Y-68250000D03*
%TD*%
D54*
%TO.C,R62*%
X152350000Y-116780000D03*
X152350000Y-117420000D03*
%TD*%
D115*
%TO.C,U1*%
X180600000Y-137830000D03*
X180600000Y-136560000D03*
X180600000Y-135290000D03*
X180600000Y-134020000D03*
X186600000Y-134020000D03*
X186600000Y-135290000D03*
X186600000Y-136560000D03*
X186600000Y-137830000D03*
%TD*%
D45*
%TO.C,C87*%
X185900000Y-52870000D03*
X185900000Y-52230000D03*
%TD*%
D42*
%TO.C,C74*%
X187680000Y-60000000D03*
X186720000Y-60000000D03*
%TD*%
D74*
%TO.C,D15*%
X153044201Y-89150000D03*
X151544201Y-89150000D03*
X151544201Y-94550000D03*
X153044201Y-94550000D03*
%TD*%
D116*
%TO.C,U18*%
X111290000Y-124900000D03*
X111290000Y-125400000D03*
X111290000Y-125900000D03*
X111290000Y-126400000D03*
X109810000Y-126400000D03*
X109810000Y-125900000D03*
X109810000Y-125400000D03*
X109810000Y-124900000D03*
%TD*%
D61*
%TO.C,C49*%
X130780000Y-93250000D03*
X131420000Y-93250000D03*
%TD*%
D54*
%TO.C,R63*%
X123900000Y-85680000D03*
X123900000Y-86320000D03*
%TD*%
D89*
%TO.C,C77*%
X194500000Y-50950000D03*
X194500000Y-52850000D03*
%TD*%
D102*
%TO.C,U20*%
X188950000Y-84262500D03*
X188450000Y-84262500D03*
X187950000Y-84262500D03*
X187450000Y-84262500D03*
X186950000Y-84262500D03*
X186450000Y-84262500D03*
X185950000Y-84262500D03*
D103*
X184987500Y-83300000D03*
X184987500Y-82800000D03*
X184987500Y-82300000D03*
X184987500Y-81800000D03*
X184987500Y-81300000D03*
X184987500Y-80800000D03*
X184987500Y-80300000D03*
D102*
X185950000Y-79337500D03*
X186450000Y-79337500D03*
X186950000Y-79337500D03*
X187450000Y-79337500D03*
X187950000Y-79337500D03*
X188450000Y-79337500D03*
X188950000Y-79337500D03*
D103*
X189912500Y-80300000D03*
X189912500Y-80800000D03*
X189912500Y-81300000D03*
X189912500Y-81800000D03*
X189912500Y-82300000D03*
X189912500Y-82800000D03*
X189912500Y-83300000D03*
D104*
X187450000Y-81800000D03*
%TD*%
D82*
%TO.C,SW8*%
X175350000Y-133250000D03*
X175350000Y-124750000D03*
X170850000Y-133250000D03*
X170850000Y-124750000D03*
%TD*%
D14*
%TO.C,J16*%
X190975000Y-115000000D03*
X196975000Y-115000000D03*
D83*
X194575000Y-111500000D03*
X197275000Y-118500000D03*
X198275000Y-111500000D03*
X190275000Y-118500000D03*
X188575000Y-111500000D03*
%TD*%
D117*
%TO.C,J11*%
X105300000Y-143700000D03*
X105300000Y-142700000D03*
X105300000Y-141700000D03*
X105300000Y-140700000D03*
D118*
X101425000Y-145000000D03*
X101425000Y-139400000D03*
%TD*%
D90*
%TO.C,C98*%
X190200000Y-85625000D03*
X190200000Y-87175000D03*
%TD*%
D119*
%TO.C,U9*%
X117237500Y-136100000D03*
X117237500Y-135600000D03*
X117237500Y-135100000D03*
X117237500Y-134600000D03*
D120*
X117900000Y-134437500D03*
X118400000Y-134437500D03*
X118900000Y-134437500D03*
D119*
X119562500Y-134600000D03*
X119562500Y-135100000D03*
X119562500Y-135600000D03*
X119562500Y-136100000D03*
D120*
X118900000Y-136262500D03*
X118400000Y-136262500D03*
X117900000Y-136262500D03*
%TD*%
D113*
%TO.C,D9*%
X147000000Y-78300000D03*
D114*
X147000000Y-75250000D03*
%TD*%
D43*
%TO.C,C104*%
X196975000Y-64875000D03*
X195075000Y-64875000D03*
%TD*%
D121*
%TO.C,J6*%
X168065000Y-140270000D03*
D122*
X169335000Y-140270000D03*
X168065000Y-139000000D03*
X169335000Y-139000000D03*
X168065000Y-137730000D03*
X169335000Y-137730000D03*
%TD*%
D123*
%TO.C,JP3*%
X167300000Y-126550000D03*
D124*
X167300000Y-127850000D03*
%TD*%
D90*
%TO.C,C89*%
X190200000Y-73425000D03*
X190200000Y-74975000D03*
%TD*%
D79*
%TO.C,R14*%
X109790000Y-98650000D03*
X110810000Y-98650000D03*
%TD*%
D125*
%TO.C,C65*%
X165326274Y-119773726D03*
X164873726Y-120226274D03*
%TD*%
D126*
%TO.C,SW1*%
X181400000Y-146900000D03*
X183100000Y-146900000D03*
D127*
X180550000Y-145200000D03*
X183950000Y-145200000D03*
D128*
X179550000Y-147500000D03*
X184950000Y-147500000D03*
%TD*%
D129*
%TO.C,U4*%
X147450000Y-141120000D03*
X147450000Y-139850000D03*
X147450000Y-138580000D03*
X147450000Y-137310000D03*
X147450000Y-136040000D03*
X147450000Y-134770000D03*
X147450000Y-133500000D03*
X147450000Y-132230000D03*
X147450000Y-130960000D03*
X147450000Y-129690000D03*
X147450000Y-128420000D03*
X147450000Y-127150000D03*
X147450000Y-125880000D03*
X147450000Y-124610000D03*
D130*
X149215000Y-123360000D03*
X150485000Y-123360000D03*
X151755000Y-123360000D03*
X153025000Y-123360000D03*
X154295000Y-123360000D03*
X155565000Y-123360000D03*
X156835000Y-123360000D03*
X158105000Y-123360000D03*
X159375000Y-123360000D03*
X160645000Y-123360000D03*
X161915000Y-123360000D03*
X163185000Y-123360000D03*
D129*
X164950000Y-124610000D03*
X164950000Y-125880000D03*
X164950000Y-127150000D03*
X164950000Y-128420000D03*
X164950000Y-129690000D03*
X164950000Y-130960000D03*
X164950000Y-132230000D03*
X164950000Y-133500000D03*
X164950000Y-134770000D03*
X164950000Y-136040000D03*
X164950000Y-137310000D03*
X164950000Y-138580000D03*
X164950000Y-139850000D03*
X164950000Y-141120000D03*
D131*
X153300000Y-132000000D03*
X153300000Y-132000000D03*
X153300000Y-133400000D03*
X153300000Y-134800000D03*
X154700000Y-132000000D03*
X154700000Y-133400000D03*
X154700000Y-134800000D03*
X154700000Y-134800000D03*
X156100000Y-132000000D03*
X156100000Y-133400000D03*
X156100000Y-134800000D03*
%TD*%
D132*
%TO.C,R43*%
X109900000Y-141690000D03*
X109900000Y-142710000D03*
%TD*%
D107*
%TO.C,R87*%
X194187500Y-80075000D03*
X197112500Y-80075000D03*
%TD*%
D58*
%TO.C,C64*%
X104275000Y-114550000D03*
X102725000Y-114550000D03*
%TD*%
D79*
%TO.C,R16*%
X109790000Y-96050000D03*
X110810000Y-96050000D03*
%TD*%
D60*
%TO.C,R30*%
X183410000Y-70400000D03*
X182390000Y-70400000D03*
%TD*%
D47*
%TO.C,C18*%
X179800000Y-102700000D03*
X185400000Y-102700000D03*
%TD*%
D133*
%TO.C,L1*%
X126525000Y-115150000D03*
X119475000Y-115150000D03*
%TD*%
D134*
%TO.C,J7*%
X164700000Y-84450000D03*
D135*
X162200000Y-84450000D03*
%TD*%
D61*
%TO.C,C34*%
X137155000Y-80550000D03*
X137795000Y-80550000D03*
%TD*%
D54*
%TO.C,R37*%
X167200000Y-101080000D03*
X167200000Y-101720000D03*
%TD*%
D136*
%TO.C,U5*%
X138275000Y-82425000D03*
X138275000Y-82925000D03*
X138275000Y-83425000D03*
X138275000Y-83925000D03*
X138275000Y-84425000D03*
X138275000Y-84925000D03*
X138275000Y-85425000D03*
X138275000Y-85925000D03*
X138275000Y-86425000D03*
X138275000Y-86925000D03*
X138275000Y-87425000D03*
X138275000Y-87925000D03*
X138275000Y-88425000D03*
X138275000Y-88925000D03*
X138275000Y-89425000D03*
X138275000Y-89925000D03*
D137*
X136350000Y-91850000D03*
X135850000Y-91850000D03*
X135350000Y-91850000D03*
X134850000Y-91850000D03*
X134350000Y-91850000D03*
X133850000Y-91850000D03*
X133350000Y-91850000D03*
X132850000Y-91850000D03*
X132350000Y-91850000D03*
X131850000Y-91850000D03*
X131350000Y-91850000D03*
X130850000Y-91850000D03*
X130350000Y-91850000D03*
X129850000Y-91850000D03*
X129350000Y-91850000D03*
X128850000Y-91850000D03*
D136*
X126925000Y-89925000D03*
X126925000Y-89425000D03*
X126925000Y-88925000D03*
X126925000Y-88425000D03*
X126925000Y-87925000D03*
X126925000Y-87425000D03*
X126925000Y-86925000D03*
X126925000Y-86425000D03*
X126925000Y-85925000D03*
X126925000Y-85425000D03*
X126925000Y-84925000D03*
X126925000Y-84425000D03*
X126925000Y-83925000D03*
X126925000Y-83425000D03*
X126925000Y-82925000D03*
X126925000Y-82425000D03*
D137*
X128850000Y-80500000D03*
X129350000Y-80500000D03*
X129850000Y-80500000D03*
X130350000Y-80500000D03*
X130850000Y-80500000D03*
X131350000Y-80500000D03*
X131850000Y-80500000D03*
X132350000Y-80500000D03*
X132850000Y-80500000D03*
X133350000Y-80500000D03*
X133850000Y-80500000D03*
X134350000Y-80500000D03*
X134850000Y-80500000D03*
X135350000Y-80500000D03*
X135850000Y-80500000D03*
X136350000Y-80500000D03*
%TD*%
D14*
%TO.C,J3*%
X190975000Y-93000000D03*
X196975000Y-93000000D03*
D83*
X194575000Y-89500000D03*
X197275000Y-96500000D03*
X198275000Y-89500000D03*
X190275000Y-96500000D03*
X188575000Y-89500000D03*
%TD*%
D76*
%TO.C,C73*%
X184120000Y-60000000D03*
X185080000Y-60000000D03*
%TD*%
D79*
%TO.C,R40*%
X168290000Y-129400000D03*
X169310000Y-129400000D03*
%TD*%
D138*
%TO.C,U16*%
X102595000Y-107625000D03*
X103865000Y-107625000D03*
X105135000Y-107625000D03*
X106405000Y-107625000D03*
X106405000Y-112575000D03*
X105135000Y-112575000D03*
X103865000Y-112575000D03*
X102595000Y-112575000D03*
%TD*%
D48*
%TO.C,C70*%
X183850000Y-71320000D03*
X183850000Y-72280000D03*
%TD*%
D76*
%TO.C,C37*%
X130420000Y-94100000D03*
X131380000Y-94100000D03*
%TD*%
D139*
%TO.C,BT1*%
X124390000Y-127600000D03*
X180000000Y-127600000D03*
D140*
X115745000Y-127600000D03*
D141*
X187745000Y-127600000D03*
%TD*%
D132*
%TO.C,R8*%
X190650000Y-134240000D03*
X190650000Y-135260000D03*
%TD*%
D142*
%TO.C,Q3*%
X168840000Y-71570000D03*
D143*
X162540000Y-73850000D03*
D142*
X168840000Y-76130000D03*
%TD*%
D144*
%TO.C,R12*%
X159300000Y-67960000D03*
X159300000Y-66940000D03*
%TD*%
D145*
%TO.C,JP2*%
X130850000Y-111950000D03*
D146*
X132150000Y-111950000D03*
D147*
X133450000Y-111950000D03*
%TD*%
D110*
%TO.C,C62*%
X168800000Y-105950000D03*
X168800000Y-108650000D03*
%TD*%
D97*
%TO.C,R53*%
X175223726Y-81726274D03*
X175676274Y-81273726D03*
%TD*%
D61*
%TO.C,R61*%
X132580000Y-126950000D03*
X133220000Y-126950000D03*
%TD*%
D148*
%TO.C,JP9*%
X142800000Y-84050000D03*
D149*
X144100000Y-84050000D03*
%TD*%
D44*
%TO.C,C5*%
X172720000Y-147000000D03*
X172080000Y-147000000D03*
%TD*%
D61*
%TO.C,R25*%
X186680000Y-118300000D03*
X187320000Y-118300000D03*
%TD*%
D77*
%TO.C,C21*%
X169600000Y-113480000D03*
X169600000Y-112520000D03*
%TD*%
D45*
%TO.C,C58*%
X185900000Y-73470000D03*
X185900000Y-72830000D03*
%TD*%
D54*
%TO.C,R4*%
X125400000Y-121180000D03*
X125400000Y-121820000D03*
%TD*%
D150*
%TO.C,Q5*%
X156762500Y-84550000D03*
X156762500Y-82650000D03*
X158637500Y-83600000D03*
%TD*%
D54*
%TO.C,R19*%
X104650000Y-134380000D03*
X104650000Y-135020000D03*
%TD*%
D48*
%TO.C,C41*%
X131700000Y-56270000D03*
X131700000Y-57230000D03*
%TD*%
D90*
%TO.C,C7*%
X121350000Y-120325000D03*
X121350000Y-121875000D03*
%TD*%
D61*
%TO.C,R21*%
X185880000Y-144800000D03*
X186520000Y-144800000D03*
%TD*%
%TO.C,R67*%
X152330000Y-116000000D03*
X152970000Y-116000000D03*
%TD*%
D107*
%TO.C,R79*%
X194187500Y-58050000D03*
X197112500Y-58050000D03*
%TD*%
D42*
%TO.C,C8*%
X110780000Y-95050000D03*
X109820000Y-95050000D03*
%TD*%
D151*
%TO.C,U11*%
X126800000Y-58950000D03*
X129100000Y-58950000D03*
D152*
X129100000Y-65250000D03*
D151*
X131400000Y-58950000D03*
%TD*%
D106*
%TO.C,C51*%
X112050000Y-90775000D03*
X112050000Y-89225000D03*
%TD*%
D54*
%TO.C,R11*%
X171400000Y-88080000D03*
X171400000Y-88720000D03*
%TD*%
D125*
%TO.C,C66*%
X164826274Y-119273726D03*
X164373726Y-119726274D03*
%TD*%
D44*
%TO.C,C120*%
X185820000Y-65800000D03*
X185180000Y-65800000D03*
%TD*%
D153*
%TO.C,JP8*%
X178800000Y-81450000D03*
D154*
X178800000Y-80150000D03*
%TD*%
D155*
%TO.C,D2*%
X185350000Y-130350000D03*
X185350000Y-132250000D03*
X182350000Y-131300000D03*
%TD*%
D156*
%TO.C,R26*%
X164226274Y-116026274D03*
X163773726Y-115573726D03*
%TD*%
D157*
%TO.C,C97*%
X195000000Y-87125000D03*
X195000000Y-85225000D03*
%TD*%
D54*
%TO.C,R17*%
X111600000Y-95230000D03*
X111600000Y-95870000D03*
%TD*%
D43*
%TO.C,C85*%
X197000000Y-73200000D03*
X195100000Y-73200000D03*
%TD*%
D54*
%TO.C,C33*%
X125500000Y-81480000D03*
X125500000Y-82120000D03*
%TD*%
D132*
%TO.C,R71*%
X140500000Y-73740000D03*
X140500000Y-74760000D03*
%TD*%
D60*
%TO.C,R48*%
X125010000Y-62000000D03*
X123990000Y-62000000D03*
%TD*%
D102*
%TO.C,U14*%
X188950000Y-58862500D03*
X188450000Y-58862500D03*
X187950000Y-58862500D03*
X187450000Y-58862500D03*
X186950000Y-58862500D03*
X186450000Y-58862500D03*
X185950000Y-58862500D03*
D103*
X184987500Y-57900000D03*
X184987500Y-57400000D03*
X184987500Y-56900000D03*
X184987500Y-56400000D03*
X184987500Y-55900000D03*
X184987500Y-55400000D03*
X184987500Y-54900000D03*
D102*
X185950000Y-53937500D03*
X186450000Y-53937500D03*
X186950000Y-53937500D03*
X187450000Y-53937500D03*
X187950000Y-53937500D03*
X188450000Y-53937500D03*
X188950000Y-53937500D03*
D103*
X189912500Y-54900000D03*
X189912500Y-55400000D03*
X189912500Y-55900000D03*
X189912500Y-56400000D03*
X189912500Y-56900000D03*
X189912500Y-57400000D03*
X189912500Y-57900000D03*
D104*
X187450000Y-56400000D03*
%TD*%
D45*
%TO.C,C2*%
X145950000Y-139220000D03*
X145950000Y-138580000D03*
%TD*%
D60*
%TO.C,R1*%
X177110000Y-147000000D03*
X176090000Y-147000000D03*
%TD*%
D42*
%TO.C,C95*%
X187680000Y-85400000D03*
X186720000Y-85400000D03*
%TD*%
D158*
%TO.C,JP5*%
X128450000Y-69250000D03*
D159*
X127150000Y-69250000D03*
%TD*%
D58*
%TO.C,C81*%
X125425000Y-68300000D03*
X123875000Y-68300000D03*
%TD*%
D60*
%TO.C,R24*%
X178210000Y-114400000D03*
X177190000Y-114400000D03*
%TD*%
D160*
%TO.C,J36*%
X138550000Y-72125000D03*
X138550000Y-77165000D03*
X136010000Y-72125000D03*
X136010000Y-77165000D03*
X133470000Y-72125000D03*
X133470000Y-77165000D03*
X130930000Y-72125000D03*
X130930000Y-77165000D03*
X128390000Y-72125000D03*
X128390000Y-77165000D03*
X125850000Y-72125000D03*
X125850000Y-77165000D03*
%TD*%
D161*
%TO.C,U17*%
X160170000Y-62480000D03*
D162*
X158100000Y-63750000D03*
X160170000Y-65020000D03*
%TD*%
D54*
%TO.C,R64*%
X111600000Y-102230000D03*
X111600000Y-102870000D03*
%TD*%
D163*
%TO.C,R20*%
X189000000Y-134750000D03*
X189000000Y-131650000D03*
%TD*%
D164*
%TO.C,J25*%
X154640000Y-65325000D03*
X154640000Y-59875000D03*
X152080000Y-65325000D03*
X152080000Y-59875000D03*
X149480000Y-65325000D03*
X149480000Y-59875000D03*
X146940000Y-65325000D03*
X146940000Y-59875000D03*
X144400000Y-65325000D03*
X144400000Y-59875000D03*
X141860000Y-65325000D03*
X141860000Y-59875000D03*
X139320000Y-65325000D03*
X139320000Y-59875000D03*
X136720000Y-65325000D03*
X136720000Y-59875000D03*
X134160000Y-65325000D03*
X134160000Y-59875000D03*
%TD*%
D75*
%TO.C,C52*%
X111575000Y-84150000D03*
X113125000Y-84150000D03*
%TD*%
D165*
%TO.C,D10*%
X151300000Y-82700000D03*
D166*
X148250000Y-82700000D03*
%TD*%
D44*
%TO.C,C3*%
X188820000Y-137800000D03*
X188180000Y-137800000D03*
%TD*%
D144*
%TO.C,R34*%
X123550000Y-77285000D03*
X123550000Y-76265000D03*
%TD*%
D74*
%TO.C,D17*%
X143950000Y-89200000D03*
X142450000Y-89200000D03*
X142450000Y-94600000D03*
X143950000Y-94600000D03*
%TD*%
D91*
%TO.C,J5*%
X106392500Y-131490000D03*
X106392500Y-125710000D03*
D92*
X107837500Y-131850000D03*
X107837500Y-131050000D03*
D93*
X107837500Y-129850000D03*
X107837500Y-128850000D03*
X107837500Y-128350000D03*
X107837500Y-127350000D03*
D92*
X107837500Y-126150000D03*
X107837500Y-125350000D03*
X107837500Y-125350000D03*
X107837500Y-126150000D03*
D93*
X107837500Y-126850000D03*
X107837500Y-127850000D03*
X107837500Y-129350000D03*
X107837500Y-130350000D03*
D92*
X107837500Y-131050000D03*
X107837500Y-131850000D03*
D94*
X102742500Y-132920000D03*
D95*
X106922500Y-132920000D03*
D94*
X102742500Y-124280000D03*
D95*
X106922500Y-124280000D03*
%TD*%
D148*
%TO.C,JP4*%
X136450000Y-69250000D03*
D149*
X137750000Y-69250000D03*
%TD*%
D61*
%TO.C,C55*%
X119230000Y-133350000D03*
X119870000Y-133350000D03*
%TD*%
D74*
%TO.C,D16*%
X148450000Y-89150000D03*
X146950000Y-89150000D03*
X146950000Y-94550000D03*
X148450000Y-94550000D03*
%TD*%
D44*
%TO.C,R41*%
X172620000Y-138100000D03*
X171980000Y-138100000D03*
%TD*%
D51*
%TO.C,Q2*%
X183550000Y-68100000D03*
X181650000Y-68100000D03*
X182600000Y-66225000D03*
%TD*%
D49*
%TO.C,R23*%
X183200000Y-114900000D03*
X183200000Y-116900000D03*
%TD*%
D45*
%TO.C,R36*%
X168000000Y-101720000D03*
X168000000Y-101080000D03*
%TD*%
D62*
%TO.C,TP1*%
X186195000Y-119685000D03*
%TD*%
D45*
%TO.C,R57*%
X145700000Y-132620000D03*
X145700000Y-131980000D03*
%TD*%
D76*
%TO.C,C44*%
X134020000Y-67650000D03*
X134980000Y-67650000D03*
%TD*%
D132*
%TO.C,R42*%
X184400000Y-122090000D03*
X184400000Y-123110000D03*
%TD*%
D45*
%TO.C,R2*%
X145950000Y-137770000D03*
X145950000Y-137130000D03*
%TD*%
D81*
%TO.C,D14*%
X182600000Y-77700000D03*
X178800000Y-77700000D03*
%TD*%
D90*
%TO.C,C79*%
X121100000Y-65225000D03*
X121100000Y-66775000D03*
%TD*%
D44*
%TO.C,R72*%
X110070000Y-127350000D03*
X109430000Y-127350000D03*
%TD*%
D54*
%TO.C,R56*%
X144850000Y-132630000D03*
X144850000Y-133270000D03*
%TD*%
D43*
%TO.C,C102*%
X196975000Y-62900000D03*
X195075000Y-62900000D03*
%TD*%
D150*
%TO.C,Q1*%
X160962500Y-69150000D03*
X160962500Y-67250000D03*
X162837500Y-68200000D03*
%TD*%
D77*
%TO.C,C42*%
X123250000Y-56030000D03*
X123250000Y-55070000D03*
%TD*%
D44*
%TO.C,C40*%
X169470000Y-123250000D03*
X168830000Y-123250000D03*
%TD*%
D113*
%TO.C,D12*%
X153000000Y-68700000D03*
D114*
X153000000Y-71750000D03*
%TD*%
D113*
%TO.C,D11*%
X153000000Y-75700000D03*
D114*
X153000000Y-78750000D03*
%TD*%
D42*
%TO.C,C82*%
X122230000Y-61100000D03*
X121270000Y-61100000D03*
%TD*%
D106*
%TO.C,C92*%
X190200000Y-77975000D03*
X190200000Y-76425000D03*
%TD*%
D60*
%TO.C,R22*%
X126910000Y-90800000D03*
X125890000Y-90800000D03*
%TD*%
D54*
%TO.C,R81*%
X104100000Y-105280000D03*
X104100000Y-105920000D03*
%TD*%
D72*
%TO.C,R13*%
X168250000Y-78237500D03*
X168250000Y-81162500D03*
%TD*%
D70*
%TO.C,C13*%
X164189411Y-118710589D03*
X163510589Y-119389411D03*
%TD*%
D132*
%TO.C,R70*%
X163400000Y-94790001D03*
X163400000Y-95809999D03*
%TD*%
D50*
%TO.C,R47*%
X135125000Y-112450000D03*
X136775000Y-112450000D03*
%TD*%
D144*
%TO.C,R6*%
X181450000Y-81560000D03*
X181450000Y-80540000D03*
%TD*%
D106*
%TO.C,C68*%
X190200000Y-65475000D03*
X190200000Y-63925000D03*
%TD*%
D54*
%TO.C,C11*%
X179000000Y-140980000D03*
X179000000Y-141620000D03*
%TD*%
D79*
%TO.C,R10*%
X109790000Y-102050000D03*
X110810000Y-102050000D03*
%TD*%
D60*
%TO.C,R66*%
X169410000Y-122350000D03*
X168390000Y-122350000D03*
%TD*%
D144*
%TO.C,R44*%
X120700000Y-136810000D03*
X120700000Y-135790000D03*
%TD*%
D42*
%TO.C,C71*%
X187680000Y-72900000D03*
X186720000Y-72900000D03*
%TD*%
D45*
%TO.C,R82*%
X103300000Y-105920000D03*
X103300000Y-105280000D03*
%TD*%
D132*
%TO.C,R9*%
X109900000Y-143590000D03*
X109900000Y-144610000D03*
%TD*%
D44*
%TO.C,C46*%
X155020000Y-88750000D03*
X154380000Y-88750000D03*
%TD*%
D72*
%TO.C,R78*%
X143350000Y-115637500D03*
X143350000Y-118562500D03*
%TD*%
D54*
%TO.C,R50*%
X108400000Y-108180000D03*
X108400000Y-108820000D03*
%TD*%
D107*
%TO.C,R84*%
X194187500Y-70900000D03*
X197112500Y-70900000D03*
%TD*%
D61*
%TO.C,R31*%
X182930000Y-69500000D03*
X183570000Y-69500000D03*
%TD*%
D45*
%TO.C,C90*%
X185850000Y-85970000D03*
X185850000Y-85330000D03*
%TD*%
D90*
%TO.C,C6*%
X145600000Y-140325000D03*
X145600000Y-141875000D03*
%TD*%
D167*
%TO.C,R46*%
X189000000Y-140350000D03*
X189000000Y-143450000D03*
%TD*%
D168*
%TO.C,FB2*%
X129287500Y-93650000D03*
X127712500Y-93650000D03*
%TD*%
D115*
%TO.C,U7*%
X180600000Y-143455000D03*
X180600000Y-142185000D03*
X180600000Y-140915000D03*
X180600000Y-139645000D03*
X186600000Y-139645000D03*
X186600000Y-140915000D03*
X186600000Y-142185000D03*
X186600000Y-143455000D03*
%TD*%
D46*
%TO.C,C4*%
X135250000Y-110700000D03*
X137150000Y-110700000D03*
%TD*%
D54*
%TO.C,R85*%
X102500000Y-105280000D03*
X102500000Y-105920000D03*
%TD*%
D61*
%TO.C,R27*%
X192280000Y-119300000D03*
X192920000Y-119300000D03*
%TD*%
D157*
%TO.C,C96*%
X196975000Y-87125000D03*
X196975000Y-85225000D03*
%TD*%
D60*
%TO.C,R5*%
X190010000Y-138950000D03*
X188990000Y-138950000D03*
%TD*%
D54*
%TO.C,C57*%
X117900000Y-146480000D03*
X117900000Y-147120000D03*
%TD*%
%LPD*%
M02*
